<?xml version="1.0" encoding="UTF-8" standalone="no"?>
<!-- Created with Inkscape (http://www.inkscape.org/) -->

<svg
   width="172.18791mm"
   height="157.50386mm"
   viewBox="0 0 172.18791 157.50386"
   version="1.1"
   id="svg5"
   inkscape:export-filename="hist_sketch.svg"
   inkscape:export-xdpi="96"
   inkscape:export-ydpi="96"
   xmlns:inkscape="http://www.inkscape.org/namespaces/inkscape"
   xmlns:sodipodi="http://sodipodi.sourceforge.net/DTD/sodipodi-0.dtd"
   xmlns="http://www.w3.org/2000/svg"
   xmlns:svg="http://www.w3.org/2000/svg">
  <sodipodi:namedview
     id="namedview7"
     pagecolor="#505050"
     bordercolor="#eeeeee"
     borderopacity="1"
     inkscape:showpageshadow="0"
     inkscape:pageopacity="0"
     inkscape:pagecheckerboard="0"
     inkscape:deskcolor="#505050"
     inkscape:document-units="mm"
     showgrid="false"
     inkscape:zoom="0.59780184"
     inkscape:cx="33.455902"
     inkscape:cy="230.00933"
     inkscape:window-width="2048"
     inkscape:window-height="1099"
     inkscape:window-x="0"
     inkscape:window-y="25"
     inkscape:window-maximized="0"
     inkscape:current-layer="layer1" />
  <defs
     id="defs2" />
  <g
     inkscape:label="Layer 1"
     inkscape:groupmode="layer"
     id="layer1"
     transform="translate(-13.469942,-68.190154)">
    <path
       id="path235"
       style="fill:#8e61aa;stroke:none;stroke-width:0.392642"
       d="m 27.944032,68.190154 c -0.03646,0.762302 -0.05792,0.931273 -0.01499,1.821077 0.201877,4.183581 0.655127,8.361016 1.002522,12.533601 0.998654,12.10121 1.241351,24.241708 1.488797,36.375558 0.261969,11.38466 0.372555,22.77153 0.507979,34.15812 0.108728,9.70814 0.143383,19.41668 0.135393,29.12536 0.04505,6.94107 -0.0048,13.88248 -0.130226,20.8225 l 3.234428,1.64796 c -0.122216,-6.99058 -0.176278,-13.98227 -0.164846,-20.97391 -0.07211,-9.74315 -0.155636,-19.48623 -0.329697,-29.22819 -0.0064,-0.41743 -0.170646,-11.10915 -0.174665,-11.44633 -0.09029,-7.5779 -0.05936,-15.15855 -0.366387,-22.73247 -0.378677,-12.08915 -0.64422,-24.182998 -1.234548,-36.26445 -0.234096,-3.772495 -0.266642,-4.078499 -0.440801,-7.664648 -0.102005,-2.100369 -0.259377,-4.23141 -0.01344,-6.32778 z" />
    <path
       style="fill:#8e61aa;stroke:none;stroke-width:0.392642"
       id="path843"
       d="m 24.063677,198.84324 c 3.399062,-0.48178 6.829612,-0.64112 10.256625,-0.76793 3.323717,-0.0568 6.647381,0.0429 9.968818,0.15668 2.108292,0.0864 4.219175,0.0455 6.32851,0.0343 3.824965,-0.01 7.649816,-0.0305 11.474799,-0.026 3.912463,-0.0345 7.822425,0.0475 11.73322,0.14724 4.056394,0.0325 8.106723,0.22158 12.156125,0.44501 4.135089,0.25204 8.278035,0.2815 12.419198,0.31604 4.177398,0.0314 8.354998,0.0367 12.532508,0.0399 4.03412,-0.009 8.06823,-0.008 12.10236,-0.005 3.68286,0.0302 7.36349,0.018 11.04479,-0.0905 4.12895,-0.12722 8.25936,-0.18992 12.39007,-0.2165 4.20774,0.018 8.41192,-0.16269 12.61428,-0.34992 5.56887,-0.32911 11.14532,-0.47247 16.72259,-0.54969 3.28335,-0.0369 6.5668,-0.0485 9.85028,-0.0268 0,0 -3.03217,-2.20178 -3.03217,-2.20178 v 0 c -3.23766,0.0392 -6.47574,0.0567 -9.71281,0.13373 -5.58501,0.13162 -11.16974,0.29083 -16.75098,0.53769 -4.20818,0.13205 -8.41605,0.32233 -12.627,0.3268 -4.14668,0.0288 -8.29363,0.0497 -12.43845,0.19067 -3.67635,0.0907 -7.35271,0.0903 -11.0301,0.089 -4.03529,0.004 -8.07057,0.008 -12.10587,0.002 -4.16335,0.005 -8.326706,0.0154 -12.49002,-0.0132 -4.150569,-0.0427 -8.301522,-0.11972 -12.446349,-0.3565 -4.049382,-0.22168 -8.100608,-0.37883 -12.156115,-0.43187 -3.910314,-0.1037 -7.819996,-0.19504 -11.732151,-0.13464 -3.850421,0.005 -7.70074,-0.013 -11.551116,-0.0304 -2.127752,-0.0189 -4.255143,-0.0546 -6.382752,-0.0836 -3.28,-0.0362 -6.560625,-0.0969 -9.840688,-0.0354 -3.50031,0.13993 -7.000048,0.30187 -10.48735,0.64693 0,0 3.189748,2.2535 3.189748,2.2535 z" />
    <path
       style="fill:#8e61aa;stroke:none;stroke-width:0.392642"
       id="path851"
       d="m 75.64326,203.02788 c 0.201229,3.48839 0.149066,6.98437 -0.01386,10.47263 -0.07196,1.54307 -0.251082,3.07648 -0.45116,4.6069 0,0 1.590546,0.83225 1.590546,0.83225 v 0 c 0.136051,-1.5582 0.269028,-3.11705 0.334036,-4.68028 0.139928,-3.44568 0.132056,-6.89454 0.291849,-10.33912 0,0 -1.751412,-0.89238 -1.751411,-0.89238 z" />
    <path
       style="fill:#8e61aa;stroke:none;stroke-width:0.392642"
       id="path853"
       d="m 77.665725,203.89734 c 1.284512,0.25558 2.541558,0.65044 3.709225,1.24974 0.267835,0.13747 0.523695,0.29711 0.785543,0.44567 -0.307507,-0.1544 -0.57847,-0.45799 -0.92252,-0.46319 -0.23123,-0.003 0.366059,0.28625 0.521861,0.45714 0.140023,0.15359 0.27555,0.31933 0.359402,0.5095 0.146159,0.33147 0.140684,0.78243 0.02408,1.11949 -0.06813,0.19693 -0.198919,0.36622 -0.298378,0.54933 -0.801995,0.97062 -1.904659,1.61818 -3.039335,2.12902 -0.468725,0.18529 -0.950857,0.34075 -1.405848,0.55881 -1.326438,0.55463 0.181965,0.84623 1.353291,1.4885 1.439119,0.13488 2.869864,0.35541 4.259874,0.7552 1.330174,0.65762 -0.529807,-0.35993 -0.820132,-0.49135 -0.10622,-0.0481 0.181306,0.14899 0.255304,0.23909 0.264441,0.32198 0.26646,0.63288 0.257866,1.02836 -0.212836,1.08203 -0.890326,1.97554 -1.721834,2.6759 -0.208857,0.17591 -0.437917,0.32634 -0.656876,0.48951 -1.418299,0.97878 -3.118136,1.15977 -4.779544,1.37151 -0.321527,0.0473 -0.64755,0.0643 -0.962573,0.14706 0,0 1.633559,1.1166 1.633559,1.1166 v 0 c 0.280048,-0.0951 0.577029,-0.12382 0.866232,-0.17897 1.67481,-0.25333 3.394043,-0.45207 4.81571,-1.46118 0.223319,-0.16892 0.456348,-0.32572 0.669955,-0.50677 0.866576,-0.7345 1.584486,-1.64734 1.85027,-2.7679 0.02917,-0.33976 0.07728,-0.49841 -0.02162,-0.82744 -0.05811,-0.19335 -0.232362,-0.50845 -0.409816,-0.62351 -1.64838,-1.06872 -1.392949,-0.93979 -2.480257,-1.36561 -1.423963,-0.36383 -2.880328,-0.5462 -4.32743,-0.79222 1.900757,1.17986 0.897983,1.22408 1.861553,0.79091 0.451147,-0.20498 0.912852,-0.38567 1.365737,-0.58677 1.140238,-0.56932 2.257195,-1.25076 3.074784,-2.24656 0.112546,-0.20018 0.257804,-0.38523 0.337637,-0.60056 0.131562,-0.35488 0.163571,-0.89037 0.03208,-1.25149 -0.435158,-1.1951 -2.409272,-1.86352 -3.132712,-2.42431 -0.262096,-0.1425 -0.518689,-0.29564 -0.786288,-0.42752 -1.215531,-0.59909 -2.520223,-0.98834 -3.837573,-1.28945 0,0 1.568765,1.18346 1.568765,1.18346 z" />
    <path
       style="fill:#8e61aa;stroke:none;stroke-width:0.392642"
       id="path855"
       d="m 86.186173,214.22414 c -0.811265,0.59702 -1.369708,1.46718 -1.838494,2.34315 -0.04128,0.15752 -0.10795,0.31051 -0.123831,0.47257 -0.07799,0.79588 0.537242,1.19065 1.159333,1.53586 2.65367,1.47258 1.745541,1.1803 3.842396,1.55229 1.428758,0.0842 3.110444,0.14628 4.263704,-0.87818 0.181351,-0.1611 0.345716,-0.35279 0.450303,-0.57165 0.08795,-0.18405 0.07367,-0.40126 0.1105,-0.60189 -0.07797,-0.20292 -0.11004,-0.43013 -0.233926,-0.60876 -0.28248,-0.40731 -0.913558,-0.83805 -1.326838,-1.07715 -1.546521,-0.89475 -2.220301,-1.32734 -3.716535,-1.77551 -0.555231,-0.0943 -1.434984,-0.15077 -1.847776,0.35357 -0.03841,0.0469 -0.0505,0.11029 -0.07575,0.16543 0,0 1.732106,0.95612 1.732106,0.95612 v 0 c 0.01323,-0.12644 -0.0083,-0.0999 0.156615,-0.19949 0.466267,-0.28162 1.02326,-0.22743 1.531575,-0.11869 0.202422,0.0634 0.408082,0.11725 0.607261,0.1902 0.238458,0.0873 0.812657,0.51991 0.704408,0.29019 -0.13911,-0.29522 -0.576985,-0.31717 -0.819846,-0.53518 -0.214339,-0.1924 0.499816,0.28844 0.733129,0.45734 0.210798,0.1526 0.426233,0.30712 0.595704,0.50461 0.125608,0.14637 0.182975,0.3396 0.274463,0.50941 -0.01479,0.17555 0.02318,0.36394 -0.04434,0.52668 -0.181271,0.43699 -0.680641,0.80345 -1.081855,0.98892 -1.076259,0.49754 -2.286016,0.45752 -3.433106,0.34912 -0.430519,-0.0942 -0.861041,-0.1884 -1.291561,-0.28261 0.199213,0.15938 0.840068,0.39868 0.597638,0.47815 -0.268226,0.0879 -0.502052,-0.26412 -0.725863,-0.43612 -0.539977,-0.41496 -0.530553,-0.6941 -0.377063,-1.29503 0.438862,-0.84925 0.978546,-1.71618 1.825104,-2.20938 0,0 -1.647452,-1.08397 -1.647452,-1.08397 z" />
    <path
       style="fill:#8e61aa;stroke:none;stroke-width:0.392642"
       id="path861"
       d="m 99.724095,208.43555 c 0.0073,2.35396 0.286945,4.69908 0.577245,7.03211 0.17635,1.24805 0.30326,2.50278 0.47366,3.75154 0.59777,0.24022 1.16774,0.5667 1.7933,0.72065 0.0894,0.022 0.0117,-0.18374 0.0145,-0.27574 0.003,-0.11377 0.005,-0.22761 0.004,-0.34143 -10e-4,-0.496 -0.009,-0.99209 -0.0105,-1.48813 -0.04,-0.58407 0.10672,-1.23244 -0.12917,-1.79169 -0.0334,-0.0791 -0.0849,-0.14924 -0.1273,-0.22386 -0.053,-0.0616 -0.10154,-0.1275 -0.15916,-0.18488 -0.10626,-0.10584 -0.26496,-0.22693 -0.39563,-0.30177 -0.77353,-0.44307 -1.47062,-0.95024 -2.304874,-1.22048 -0.421767,-0.11902 -0.862113,-0.16562 -1.298311,-0.12856 -0.71066,0.11559 -1.067202,0.51787 -1.437978,1.10338 -0.317014,0.6968 -0.52405,1.47076 -0.442998,2.24267 0.01611,0.15337 0.05496,0.3035 0.08244,0.45526 0.550304,1.72484 1.232434,1.70616 2.959039,2.66341 0.483848,0.11308 0.968672,0.0109 1.406742,-0.20633 0.14784,-0.0599 0.26887,-0.16324 0.39861,-0.2529 0,0 -1.667155,-1.0624 -1.667155,-1.0624 v 0 c -0.119468,0.0843 -0.23686,0.17225 -0.37343,0.22807 -0.417338,0.17883 -0.856597,0.24704 -1.293085,0.0841 3.17373,1.91052 1.19422,0.81422 0.868455,0.45563 -0.276918,-0.30483 -0.43075,-0.68843 -0.567116,-1.0702 -0.03224,-0.14312 -0.0761,-0.28411 -0.09672,-0.42935 -0.103825,-0.73112 0.09222,-1.47295 0.39574,-2.13271 0.353576,-0.54017 0.693592,-0.87614 1.361395,-0.93229 0.424766,-0.004 0.849306,0.0465 1.251386,0.19006 0.67141,0.26723 1.47347,0.81928 -1.069969,-0.69357 -0.06921,-0.0412 0.143619,0.0733 0.212099,0.11568 0.19099,0.11819 0.21025,0.1482 0.37421,0.29523 0.0507,0.0596 0.11138,0.11189 0.15202,0.1787 0.29713,0.48852 0.14364,1.21246 0.19398,1.74983 0.002,0.49044 0.002,0.98014 -0.0128,1.47042 -0.003,0.10976 -0.006,0.21955 -0.0117,0.32921 -0.004,0.0831 -0.0845,0.19865 -0.0182,0.24891 0.53899,0.4086 1.15654,0.70161 1.73481,1.05242 -0.13735,-0.30067 -0.16937,-0.67079 -0.2231,-0.99031 -0.15789,-0.93902 -0.30259,-1.88034 -0.44347,-2.82203 -0.3076,-2.27993 -0.6358,-4.59735 -0.42306,-6.90026 0,0 -1.748299,-0.91837 -1.748299,-0.91837 z" />
    <path
       style="fill:#8e61aa;stroke:none;stroke-width:0.392642"
       id="path863"
       d="m 103.17029,215.55852 c 0.0292,0.33647 0.0209,0.50877 0.15716,0.83715 0.11409,0.27494 0.35734,0.65078 0.61596,0.81326 1.97583,1.2414 1.41824,1.07715 2.73986,1.30277 1.09579,0.0438 2.16861,-0.28551 3.02694,-0.97778 0.13594,-0.10964 0.25395,-0.23981 0.38093,-0.35972 0.0942,-0.10048 0.17084,-0.22097 0.28261,-0.30145 0.0553,-0.0398 0.13275,-0.0303 0.19912,-0.0454 -0.52424,-0.25888 -1.01728,-0.59404 -1.5727,-0.77664 -0.1104,-0.0363 0.12125,0.20069 0.15708,0.31124 0.11622,0.35865 0.15495,0.83971 0.19993,1.20286 0.11612,1.3552 0.20123,2.74581 -0.20169,4.06599 -0.081,0.26525 -0.19767,0.51823 -0.2965,0.77735 -0.15161,0.24399 -0.27851,0.50519 -0.45483,0.73197 -0.5116,0.65803 -1.20314,1.16483 -2.01854,1.36444 -0.50893,0.12459 -0.87551,0.0875 -1.38341,0.0774 -0.60085,-0.0535 -0.33032,-0.014 -0.8137,-0.10301 0,0 1.55884,1.16658 1.55884,1.16658 v 0 c 0.46688,0.046 0.20463,0.0264 0.78744,0.0485 0.52361,-0.0168 0.8766,0.001 1.3979,-0.15073 1.15672,-0.33672 1.98071,-1.20483 2.55094,-2.23119 0.10207,-0.26661 0.22141,-0.52722 0.30619,-0.79982 0.41482,-1.33376 0.34804,-2.73355 0.2583,-4.10818 -0.0371,-0.42406 -0.0592,-0.80532 -0.13471,-1.22234 -0.0237,-0.13074 0.0133,-0.30894 -0.0939,-0.38738 -0.48291,-0.3532 -1.43885,-1.51532 -2.09849,-0.92317 -0.0982,0.0882 -0.17357,0.19886 -0.26035,0.29828 -0.11858,0.11378 -0.2281,0.23783 -0.35575,0.34133 -0.83029,0.67316 -1.87972,0.95219 -2.93535,0.85297 -0.77756,-0.19192 -1.25662,-0.37522 0.54448,0.57107 0.14949,0.0785 -0.27318,-0.20228 -0.38654,-0.32743 -0.2928,-0.32325 -0.41009,-0.71681 -0.41616,-1.14347 0,0 -1.74105,-0.90542 -1.74105,-0.90542 z" />
    <path
       style="fill:#8e61aa;stroke:none;stroke-width:0.392642"
       id="path865"
       d="m 120.88592,214.82844 c 0.0599,0.62268 0.0133,1.24804 -0.0632,1.86685 -0.0264,0.21388 -0.0906,0.74134 -0.19394,0.97845 -0.0196,0.045 -0.0714,0.0674 -0.10716,0.10104 0.54851,0.2486 1.05379,0.63395 1.64552,0.74581 0.14746,0.0279 -0.064,-0.29612 -0.0604,-0.44615 0.0132,-0.54617 0.17978,-1.32263 0.49913,-1.77812 0.0736,-0.10493 0.18741,-0.17483 0.28111,-0.26225 0.0996,0.005 0.2062,-0.021 0.29881,0.0161 0.11872,0.0475 0.42761,0.27523 0.30911,0.22718 -0.44129,-0.17893 -0.82208,-0.51364 -1.28552,-0.62309 -0.17022,-0.0402 0.22941,0.26415 0.33987,0.39976 0.10295,0.12639 0.16089,0.30142 0.3002,0.38607 0.64991,0.39493 1.35628,0.6884 2.03442,1.0326 0.15341,-0.0877 0.32392,-0.15058 0.46024,-0.26299 0.28697,-0.2366 0.80624,-0.90318 1.02357,-1.17222 0.13732,-0.16999 0.78024,-0.98173 0.95137,-1.16862 0.12096,-0.13211 0.25854,-0.24799 0.38781,-0.37197 0.11251,-0.0515 0.2152,-0.13591 0.33753,-0.15453 0.0988,-0.015 0.196,0.0389 0.29401,0.0584 -0.44071,-0.23371 -0.85309,-0.53129 -1.32213,-0.70113 -0.18102,-0.0656 0.30043,0.24224 0.43501,0.3799 0.39452,0.40353 0.53373,0.64961 0.85558,1.11641 0.37125,0.567 0.63442,1.18835 0.88873,1.81285 0,0 1.7241,0.79565 1.7241,0.79565 v 0 c -0.26168,-0.63526 -0.52931,-1.26909 -0.89155,-1.85585 -0.24615,-0.3782 -0.82812,-1.30871 -1.21272,-1.55303 -0.66009,-0.41932 -1.33842,-0.81555 -2.04757,-1.14517 -0.10436,-0.0485 -0.2354,-0.005 -0.34359,0.0337 -0.12793,0.0464 -0.2308,0.14422 -0.3462,0.21633 -0.46866,0.50288 -0.86907,1.04871 -1.30715,1.57786 -0.2387,0.28831 -0.69608,0.84774 -1.02946,1.07391 -0.11876,0.0806 -0.26799,0.10276 -0.40199,0.15414 0.42414,0.29664 0.81193,0.65364 1.27243,0.88993 0.14723,0.0755 -0.2019,-0.26226 -0.30358,-0.39281 -0.10857,-0.1394 -0.18571,-0.31117 -0.32717,-0.41703 -0.63832,-0.47768 -1.31445,-0.90395 -1.99437,-1.32028 -0.11733,-0.0718 -0.25126,-0.13181 -0.38865,-0.1389 -0.12427,-0.006 -0.23972,0.0669 -0.35957,0.10031 -0.0969,0.10937 -0.21331,0.2042 -0.29076,0.32812 -0.31972,0.5116 -0.4725,1.26307 -0.55321,1.85244 -0.0238,0.17411 -0.16618,0.41129 -0.0332,0.52618 0.5369,0.46382 1.23568,0.69759 1.85353,1.04639 0.0377,-0.0634 0.0902,-0.12013 0.11324,-0.19025 0.0778,-0.23701 0.13981,-0.81843 0.16394,-1.02221 0.0732,-0.61868 0.14319,-1.2402 0.14308,-1.86411 0,0 -1.74926,-0.87563 -1.74926,-0.87563 z" />
    <path
       style="fill:#8e61aa;stroke:none;stroke-width:0.392642"
       id="path867"
       d="m 137.06283,212.49239 c -1.07402,-0.16953 -2.11554,0.32352 -2.96048,0.95125 -0.28506,0.21178 -0.53925,0.46222 -0.80887,0.69333 -0.23532,0.26279 -0.50067,0.50152 -0.70596,0.78839 -0.40564,0.56685 -0.81921,1.41028 -0.35797,2.0733 0.10188,0.14645 0.25199,0.26094 0.40966,0.34442 0.70404,0.37277 1.44166,0.67831 2.16249,1.01746 0.19002,-0.0932 0.39743,-0.15706 0.57005,-0.27948 0.9268,-0.65726 1.55295,-1.98752 2.06121,-2.97866 0.46986,-0.90162 0.70558,-0.67279 -1.47735,-1.25715 -0.10848,-0.029 -0.003,0.22459 -0.005,0.33688 -0.0119,0.72426 -0.0123,0.31756 0.003,1.11958 0.0273,0.74657 0.174,1.47692 0.35599,2.19857 0,0 1.74059,0.82815 1.74059,0.82815 v 0 c -0.21505,-0.70593 -0.3764,-1.42526 -0.40402,-2.16635 2.7e-4,-0.46562 -0.011,-0.63979 0.0289,-1.08473 0.0102,-0.11391 0.13373,-0.26713 0.0456,-0.34006 -1.84011,-1.52311 -1.5163,-1.56773 -1.94268,-0.57489 -0.44,0.94945 -1.06268,2.30565 -1.98866,2.86368 -0.15627,0.0942 -0.34406,0.12156 -0.5161,0.18233 0.38164,0.27848 0.78193,0.53306 1.14493,0.83544 0.1333,0.11103 -0.3273,-0.13747 -0.45193,-0.25817 -0.12815,-0.12411 -0.25169,-0.27843 -0.28343,-0.45399 -0.0408,-0.22557 0.008,-0.46489 0.0778,-0.68328 0.23904,-0.74924 0.55441,-0.96195 1.07958,-1.54481 0.26844,-0.22067 0.52038,-0.46313 0.80535,-0.66202 0.8697,-0.60697 1.92552,-1.00738 2.98598,-0.75595 0,0 -1.56903,-1.19324 -1.56903,-1.19324 z" />
    <path
       style="fill:#8e61aa;stroke:none;stroke-width:0.392642"
       id="path869"
       d="m 146.37485,209.59786 c -1.00784,0.73935 -2.12664,1.43626 -2.86746,2.47059 -0.17219,0.24041 -0.28788,0.51663 -0.43182,0.77494 -0.031,0.26028 -0.12527,0.52071 -0.093,0.78084 0.15251,1.23046 1.53372,2.07454 2.37111,2.84156 0.007,0.0992 0.0681,0.21027 0.0205,0.29757 -0.17015,0.31227 -0.97259,0.74341 -1.16502,0.84978 -0.84519,0.46721 -1.73932,0.84473 -2.62158,1.23452 0,0 1.55847,1.03142 1.55847,1.03142 v 0 c 0.86582,-0.42704 1.75505,-0.81422 2.60916,-1.26408 0.35076,-0.18474 1.11379,-0.55146 1.34508,-0.97186 0.0729,-0.13251 0.0143,-0.30215 0.0215,-0.45322 -0.13486,-0.12546 -0.26283,-0.25875 -0.40457,-0.37638 -0.71295,-0.59171 -1.87717,-1.33761 -2.07233,-2.32377 -0.0468,-0.2366 0.0266,-0.48164 0.04,-0.72246 0.13248,-0.24832 0.2333,-0.51634 0.39745,-0.74497 0.69782,-0.97194 1.92769,-1.7463 2.94039,-2.36447 0,0 -1.64779,-1.06001 -1.64779,-1.06001 z" />
    <path
       style="fill:#8e61aa;stroke:none;stroke-width:0.392642"
       id="path871"
       d="m 153.30055,211.00976 c -0.84283,0.1622 -2.13852,0.49534 -2.62595,1.26353 -0.11577,0.18245 -0.12669,0.41317 -0.19004,0.61975 -0.0838,0.70335 0.52692,1.25795 0.53992,1.93947 0.0172,0.90129 -0.66673,1.55018 -1.22578,2.14664 -0.58571,0.5577 -1.27075,0.98417 -1.94792,1.41753 0,0 1.58824,1.01731 1.58824,1.01731 v 0 c 0.6682,-0.46049 1.34398,-0.91447 1.9333,-1.47725 0.60061,-0.63762 1.32167,-1.33792 1.35228,-2.29179 0.0216,-0.67352 -0.55116,-1.18011 -0.57067,-1.84463 0.0417,-0.17909 0.0283,-0.38091 0.12504,-0.53728 0.45144,-0.72976 1.82449,-1.02977 2.62568,-1.11208 0,0 -1.6041,-1.1412 -1.6041,-1.1412 z" />
    <path
       style="fill:#8e61aa;stroke:none;stroke-width:0.392642"
       id="path873"
       d="m 13.504958,149.48343 c -0.01602,1.14517 -0.09398,2.29659 0.05269,3.43706 0.03079,0.23943 0.08189,0.47581 0.122834,0.71372 0.219599,0.74822 0.518101,1.53932 1.125603,2.06808 0.121808,0.10602 0.259673,0.19392 0.401626,0.27091 0.688656,0.37347 1.391875,0.71944 2.087812,1.07917 0.816502,0.11984 1.593235,-0.0957 2.156331,-0.71974 0.12101,-0.1341 0.218464,-0.28772 0.327697,-0.43158 0.663678,-1.01258 1.115848,-2.14036 1.51452,-3.27781 0.124206,-0.35136 0.215208,-0.71205 0.298179,-1.07477 0,0 -1.718298,-0.92033 -1.718298,-0.92033 v 0 c -0.06742,0.36124 -0.143082,0.72076 -0.25601,1.07122 -0.365394,1.128 -0.804491,2.24054 -1.481204,3.22269 -0.105932,0.13231 -0.200868,0.27424 -0.317797,0.39695 -0.54583,0.57281 -1.288956,0.722 -2.042937,0.55322 0.407545,0.26406 0.826456,0.51136 1.222634,0.79219 0.130482,0.0925 -0.294537,-0.13098 -0.423427,-0.22568 -0.640849,-0.47083 -0.961821,-1.25865 -1.204495,-1.98186 -0.04637,-0.23449 -0.104134,-0.46701 -0.139108,-0.70348 -0.164702,-1.11355 -0.09567,-2.24436 0.01841,-3.35878 0,0 -1.745061,-0.91118 -1.74506,-0.91118 z" />
    <path
       style="fill:#8e61aa;stroke:none;stroke-width:0.392642"
       id="path875"
       d="m 15.633281,142.15047 c -0.35721,0.57799 -0.59337,1.22881 -0.648763,1.9098 -0.01591,0.19555 -0.0398,0.39656 3.71e-4,0.5886 0.04451,0.2128 0.165909,0.40191 0.248864,0.60286 0.154271,0.17444 0.28808,0.36938 0.462814,0.52332 0.184723,0.16274 0.393914,0.29764 0.607667,0.41978 0.748492,0.42767 1.503412,0.84564 2.276063,1.22795 0.267157,0.13219 0.899901,0.29831 1.213128,0.3241 0.163514,0.0135 0.327835,-0.014 0.491752,-0.021 0.138192,-0.0559 0.288459,-0.0882 0.414576,-0.16763 0.594204,-0.37437 0.786587,-1.18301 0.747827,-1.83348 -0.01199,-0.20123 -0.06135,-0.39847 -0.09203,-0.59771 -0.148069,-0.42447 -0.194406,-0.63355 -0.42639,-1.01437 -0.134251,-0.22038 -0.385925,-0.54009 -0.61288,-0.68132 -1.81835,-1.13158 -1.340317,-0.94709 -2.422195,-1.29463 -0.655646,-0.13643 -1.342375,-0.23733 -2.001697,-0.0762 0,0 1.613742,1.12069 1.613742,1.12069 v 0 c 0.637126,-0.11809 1.290647,-0.0283 1.910456,0.14336 0.696458,0.27369 1.01012,0.42128 -0.887212,-0.61334 -0.128005,-0.0698 0.243792,0.16248 0.349868,0.26251 0.380993,0.35927 0.58999,0.83704 0.767523,1.31889 0.03574,0.18824 0.08971,0.37391 0.107213,0.56471 0.05183,0.56495 -0.106029,1.32064 -0.65476,1.62193 -0.113791,0.0625 -0.246926,0.0802 -0.370389,0.12034 -0.491786,-0.003 -0.486738,0.0278 -0.997288,-0.12173 -0.211376,-0.0619 -0.760468,-0.39411 -0.622071,-0.22277 0.236912,0.2933 0.642915,0.39604 0.944644,0.62213 0.367998,0.27574 -1.525392,-0.91641 -1.095113,-0.83894 -0.09207,-0.17574 -0.224744,-0.33562 -0.276203,-0.52723 -0.04837,-0.18011 -0.02755,-0.37316 -0.01559,-0.55927 0.04108,-0.63941 0.257594,-1.26298 0.648769,-1.77013 0,0 -1.682691,-1.03116 -1.682691,-1.03116 z" />
    <path
       style="fill:#8e61aa;stroke:none;stroke-width:0.392642"
       id="path877"
       d="m 16.738423,136.93156 c 0.737387,0.17788 1.495244,0.2894 2.25558,0.25305 0.234999,-0.0112 0.468642,-0.0422 0.702963,-0.0632 0.944382,-0.14451 2.044735,-0.26973 2.773393,-0.96544 0.105827,-0.10104 0.18668,-0.22535 0.28002,-0.33803 0.498593,-0.90314 0.190739,-1.64851 -0.330527,-2.44644 -0.2586,-0.28037 -0.315985,-0.38479 -0.655201,-0.57911 -0.692764,-0.39685 -1.388113,-0.79059 -2.101255,-1.14954 -0.417392,-0.21008 -1.189529,-0.32895 -1.654148,-0.43101 -0.462706,-0.10145 -0.929923,-0.17831 -1.397877,-0.25034 0,0 1.547261,1.16016 1.547261,1.16016 v 0 c 0.456936,0.0683 0.913287,0.14107 1.364446,0.24204 0.371087,0.0854 0.764874,0.16802 1.128586,0.28313 0.173808,0.055 0.655134,0.30252 0.513827,0.18734 -0.363562,-0.29635 -0.798736,-0.492 -1.195149,-0.7427 -0.122997,-0.0778 0.258294,0.13669 0.374816,0.22388 0.111499,0.0834 0.203592,0.19006 0.305388,0.28508 0.509277,0.70303 0.890996,1.37537 0.444495,2.22422 -0.08398,0.10122 -0.156362,0.21332 -0.251951,0.30365 -0.702824,0.66421 -1.771668,0.77071 -2.677378,0.89808 -0.233936,0.0142 -0.467467,0.0391 -0.701806,0.0425 -0.776869,0.0113 -1.5474,-0.13241 -2.293783,-0.33649 0,0 1.5683,1.19921 1.5683,1.19921 z" />
    <path
       style="fill:#8e61aa;stroke:none;stroke-width:0.392642"
       id="path879"
       d="m 16.26629,128.26945 c 1.06356,0.0732 2.11143,0.29181 3.155587,0.49692 1.062491,0.20664 2.124092,0.42399 3.199305,0.55394 0.341844,-3e-5 0.177997,0.006 0.491635,-0.0154 0,0 -1.594608,-1.14575 -1.594608,-1.14575 v 0 c -0.294087,0.0107 -0.140985,0.0105 -0.459302,-0.002 -1.050376,-0.1192 -2.090222,-0.31273 -3.12669,-0.51841 -1.080693,-0.21746 -2.164574,-0.45295 -3.26628,-0.53201 0,0 1.600353,1.16272 1.600353,1.16272 z" />
    <path
       style="fill:#8e61aa;stroke:none;stroke-width:0.392642"
       id="path881"
       d="m 18.051326,127.6415 c -0.199786,-0.48256 -0.31496,-0.98842 -0.294318,-1.51077 0.05547,-0.39389 0.266206,-0.72128 0.57788,-0.96035 0.282862,-0.2254 0.609396,-0.26028 0.960832,-0.30451 0.477051,-0.06 0.699885,-0.0731 1.17988,-0.11249 0.677528,-0.0507 1.35652,-0.0761 2.035731,-0.0872 0,0 -1.583925,-1.1438 -1.583925,-1.1438 v 0 c -0.667055,0.0278 -1.333354,0.0706 -1.998629,0.12701 -0.32123,0.0279 -0.880881,0.0742 -1.200069,0.11151 -0.410248,0.0479 -0.745457,0.0923 -1.062806,0.36446 -0.334461,0.29255 -0.577421,0.66031 -0.651291,1.10557 -0.03704,0.54128 0.07016,1.06705 0.247467,1.57837 0,0 1.789248,0.83223 1.789248,0.83223 z" />
    <path
       style="fill:#8e61aa;stroke:none;stroke-width:0.392642"
       id="path883"
       d="m 15.806946,119.84714 c 1.185242,0.35547 2.388612,0.62589 3.606767,0.83924 0.712978,0.12748 1.490118,0.2427 2.118899,-0.20775 0.116777,-0.0837 0.217334,-0.18791 0.326001,-0.28186 0.714152,-0.76148 1.165251,-1.7172 1.557118,-2.67352 0.198978,-0.52119 0.221989,-0.88872 -0.07128,-1.36099 0,0 -1.812326,-0.78036 -1.812326,-0.78036 v 0 c 0.351253,0.38051 0.360691,0.71341 0.204302,1.20544 -0.34844,0.94039 -0.805857,1.86144 -1.51445,2.58473 -0.104274,0.0815 -0.20134,0.17323 -0.312823,0.24458 -0.603715,0.38643 -1.348437,0.22849 -2.009147,0.12957 -1.253665,-0.21705 -2.455868,-0.52451 -3.676169,-0.87963 0,0 1.583112,1.18055 1.583112,1.18055 z" />
    <path
       style="fill:#8e61aa;stroke:none;stroke-width:0.392642"
       id="path885"
       d="m 16.705601,116.81826 c -0.300258,1.1071 -0.647847,2.20018 -1.007303,3.28919 0,0 1.669877,0.91587 1.669877,0.91587 v 0 c 0.326835,-1.09603 0.643429,-2.19627 1.028769,-3.27356 0,0 -1.691343,-0.9315 -1.691343,-0.9315 z" />
    <path
       style="fill:#8e61aa;stroke:none;stroke-width:0.392642"
       id="path887"
       d="m 46.468421,197.21793 c -0.127873,-4.1914 -0.141446,-8.38605 -0.158475,-12.57919 -0.138557,-7.90843 -0.195135,-15.81733 -0.155072,-23.72677 0.05076,-7.98508 0.205417,-15.96901 0.305633,-23.95355 0.06656,-2.98325 0.01643,-5.96707 0.02852,-8.95056 0.0037,-0.91949 -0.04141,-2.6787 0.210913,-3.65668 0.100941,-0.39125 0.333809,-0.73596 0.500716,-1.10394 0.266814,-0.24752 0.496049,-0.54306 0.800447,-0.74256 1.304189,-0.85474 3.619976,-1.06882 5.165418,-1.16757 0.379031,-0.01 0.905271,-0.0438 1.293976,0.0137 0.144994,0.0214 0.549177,0.19184 0.424445,0.11487 -0.437581,-0.27004 -0.874485,-0.57952 -1.37414,-0.70094 -0.156451,-0.038 0.18615,0.26923 0.232325,0.42347 0.08947,0.29884 0.113305,0.6135 0.169958,0.92025 0.323106,4.84848 0.669835,9.69604 1.00266,14.54422 0.46061,6.51318 0.851119,13.03203 1.009586,19.56002 0.140946,4.31217 -0.115959,8.61507 -0.416769,12.91345 -0.30647,3.52516 -0.499414,7.05832 -0.759349,10.58687 -0.156194,1.89001 -0.222414,3.78511 -0.322463,5.67842 -0.09964,2.111 -0.124161,4.22459 -0.147516,6.33752 -0.02291,1.80188 -0.01164,3.60399 -0.03218,5.40587 -0.01209,0.15094 -0.02418,0.30189 -0.03629,0.45283 0,0 1.728155,0.89284 1.728155,0.89284 v 0 c 0.0053,-0.15849 0.01072,-0.31698 0.01606,-0.47547 -0.02103,-1.80772 -0.01032,-3.61568 -0.0063,-5.42348 0.01601,-2.10743 0.04193,-4.21564 0.162468,-6.32019 0.108151,-1.90072 0.159472,-3.8034 0.268359,-5.70418 0.2032,-3.53994 0.374668,-7.08235 0.705043,-10.61357 0.143431,-1.90606 0.289496,-3.81571 0.342778,-5.72705 0.06741,-2.41806 0.01524,-4.83975 -0.02772,-7.25746 -0.179223,-6.53829 -0.628462,-13.0648 -1.055933,-19.59072 -0.307922,-4.80598 -0.569979,-9.6136 -0.735576,-14.42673 -0.0026,-0.0241 -0.05496,-1.26477 -0.286041,-1.44644 -1.601563,-1.25915 -2.010111,-1.37302 -3.701635,-1.26385 -1.557118,0.13388 -3.918849,0.39868 -5.209272,1.29412 -0.317447,0.22028 -0.550723,0.54211 -0.826085,0.81317 -0.163589,0.39109 -0.396605,0.75994 -0.490768,1.17327 -0.224893,0.98722 -0.126611,2.81265 -0.110746,3.73078 0.05179,2.99749 0.102716,5.99514 0.06213,8.99328 -0.03769,7.9926 -0.120373,15.98483 -0.262636,23.9763 -0.02365,7.89704 0.07557,15.79293 0.08129,23.68988 -0.01688,4.13929 -0.02919,8.2802 -0.158475,12.41769 0,0 1.76254,0.89806 1.76254,0.89806 z" />
    <path
       style="fill:#8e61aa;stroke:none;stroke-width:0.392642"
       id="path889"
       d="m 55.314733,121.64699 c -0.0984,-3.25765 0.118597,-6.51825 0.330462,-9.76783 0.173156,-2.98185 0.465831,-5.9542 0.69488,-8.9317 0.125728,-1.77135 0.221888,-3.54477 0.283824,-5.319495 0.251672,-0.06459 -0.17926,-0.632809 0.04319,-0.741487 0.206785,-0.10102 0.459388,-0.03207 0.689505,-0.0357 0.429887,-0.0068 0.860022,-0.0067 1.289819,0.0045 1.12304,0.02923 2.118964,0.103518 3.240376,0.175085 1.203352,0.112755 2.428695,0.140602 3.620815,0.361463 0.213948,0.03964 0.799886,0.302909 0.631558,0.165029 -1.987195,-1.627743 -1.402792,-0.871 -1.058751,-0.356764 0.03509,0.215884 0.08882,0.429556 0.105275,0.647655 0.04395,0.582456 0.02426,2.368524 0.04467,2.790034 0.04962,1.02491 0.134909,2.04782 0.213305,3.07092 0.264411,3.45063 0.454908,5.41762 0.773213,8.94856 1.263716,12.18614 2.054849,24.41308 2.65258,36.6478 0.325464,7.10008 0.507341,14.20899 0.339714,21.31603 -0.08141,3.45154 -0.164232,4.59606 -0.340307,7.9437 -0.255357,4.28085 -0.835863,8.53139 -1.513557,12.7628 -0.164261,0.78635 -0.200607,1.59347 -0.360121,2.37968 -0.128524,0.7312 -0.196811,1.47138 -0.263951,2.21023 -0.02685,0.34448 -0.08835,0.67396 -0.234921,0.98611 0,0 1.720096,0.96617 1.720096,0.96617 v 0 c 0.134165,-0.33918 0.214855,-0.68842 0.239056,-1.05445 0.06308,-0.73 0.150813,-1.45624 0.280353,-2.17754 0.157416,-0.80209 0.151479,-1.62611 0.283477,-2.43313 0.511466,-4.29797 0.99741,-8.60173 1.2368,-12.92515 0.129759,-3.44374 0.18764,-4.4488 0.233108,-8.00468 0.09121,-7.13353 -0.114448,-14.26937 -0.473966,-21.3934 -0.664533,-12.20645 -1.424371,-24.40941 -2.519738,-36.58585 -0.244057,-3.27606 -0.447853,-5.61756 -0.585087,-8.84819 -0.04229,-0.99558 -0.06454,-1.99212 -0.07152,-2.98857 -0.0065,-0.91995 0.07823,-1.839199 0.06728,-2.759111 -0.0028,-0.234622 -0.03328,-0.468095 -0.04992,-0.702143 -0.0642,-0.149003 -0.06063,-0.352621 -0.192591,-0.447008 -0.639783,-0.457605 -1.346255,-0.818708 -2.054754,-1.160404 -0.189605,-0.09145 -0.410072,-0.09756 -0.618257,-0.128749 -1.177128,-0.176348 -2.375019,-0.203547 -3.558982,-0.302371 -0.782886,-0.04917 -2.492959,-0.16228 -3.276068,-0.188556 -0.499517,-0.01677 -1.685388,-0.129275 -2.228043,0.20981 -0.216201,0.135096 0.198369,0.660392 -0.02831,0.764291 -0.01431,1.786072 -0.07328,3.571781 -0.19495,5.353981 -0.217604,2.98872 -0.501047,5.97235 -0.63074,8.96723 -0.199689,3.22781 -0.400667,6.45649 -0.510244,9.68882 0,0 1.751415,0.89239 1.751415,0.89239 z" />
    <path
       style="fill:#8e61aa;stroke:none;stroke-width:0.392642"
       id="path891"
       d="m 66.842364,97.256633 c 0.169185,-3.692527 0.227042,-7.390389 0.340786,-11.085613 7.94e-4,-0.02676 0.114869,-3.907274 0.135072,-4.17485 0.07346,-0.972923 -0.01135,-1.755613 0.981726,-2.278649 0.988436,-0.520587 2.991004,-0.581779 3.972465,-0.674976 2.275305,-0.06855 4.563533,-0.01611 6.824035,0.273674 0.29617,0.03797 2.296388,0.315066 2.679176,0.647626 0.213569,0.185544 -0.558442,-0.0911 -0.837662,-0.136647 0.175334,0.420159 0.404166,0.821807 0.525999,1.260475 0.350525,1.2621 0.477383,3.15513 0.548415,4.391073 0.06355,1.105715 0.101942,2.212933 0.126968,3.320187 0.105717,4.676889 0.04584,5.695953 -0.01587,10.603976 -0.180191,8.544511 -0.681241,17.077031 -1.10677,25.611391 -0.682117,13.68035 0.06666,-0.30866 -0.67451,13.24204 -0.600141,11.52039 -1.068338,23.04693 -1.589773,34.571 -0.134901,3.31942 -0.355799,6.63623 -0.380275,9.95911 -0.01921,3.52821 -0.144164,7.05506 -0.362098,10.57634 -0.108641,1.62859 -0.04387,0.86461 -0.18492,2.29274 0,0 1.668539,0.86779 1.668539,0.86779 v 0 c 0.100293,-1.45446 0.05532,-0.67829 0.127635,-2.32892 0.150712,-3.51666 0.270349,-7.03456 0.431279,-10.55069 0.0084,-3.37237 -0.0042,-6.74493 0.06183,-10.11692 0.21613,-11.57698 0.655609,-23.1488 1.31462,-34.70926 0.69093,-12.93408 1.384728,-25.869 1.869289,-38.81279 0.0801,-2.588328 0.258053,-7.730933 0.277688,-10.478427 0.0078,-1.095256 -0.0095,-2.190795 -0.04275,-3.285572 -0.03738,-1.231205 -0.109405,-3.11313 -0.402727,-4.379722 -0.104892,-0.452927 -0.310756,-0.876364 -0.466135,-1.314546 -0.786919,-0.574555 -1.522976,-1.226195 -2.360758,-1.723665 -0.519581,-0.308522 -2.161215,-0.505444 -2.625968,-0.556598 -2.25983,-0.248733 -4.540975,-0.285446 -6.811399,-0.225735 -1.068935,0.09497 -3.106957,0.131638 -4.154205,0.716299 -1.029869,0.574958 -0.924435,1.425397 -0.974696,2.429219 -0.07012,1.400471 0.03445,2.806358 -0.07199,4.206062 -0.102373,3.655714 -0.183782,7.322296 -0.561882,10.961703 0,0 1.738862,0.902875 1.738862,0.902875 z" />
    <path
       style="fill:#8e61aa;stroke:none;stroke-width:0.392642"
       id="path893"
       d="m 83.554405,85.779733 c 1.751224,0.03576 3.465028,0.431382 5.146381,0.891384 1.058437,0.295235 2.099802,0.670544 3.190931,0.827469 0.344715,0.02614 0.699238,0.03958 1.02798,0.159882 0.08528,0.03121 0.324353,0.163301 0.244904,0.119327 -1.668164,-0.923337 -1.684806,-1.369102 -1.375942,-0.357058 0.879454,7.028955 1.320739,14.113463 1.495689,21.193543 0.06494,2.62806 0.0685,5.25728 0.102749,7.88592 -0.05004,15.20486 -0.898605,30.39173 -1.805189,45.56496 -0.357275,7.00177 -0.867013,13.9939 -1.316694,20.98967 -0.146722,2.5719 -0.280521,5.14358 -0.469818,7.71272 -0.0868,1.49861 -0.192569,2.99582 -0.260336,4.49556 -0.04568,0.90916 -0.02275,0.4829 -0.06773,1.27883 0,0 1.719681,0.88494 1.719681,0.88494 v 0 c 0.01945,-0.80653 0.0073,-0.37563 0.03811,-1.29266 0.0727,-1.4984 0.203073,-2.99272 0.260408,-4.49189 0.140354,-2.59264 0.219353,-5.18701 0.340434,-7.78059 0.383604,-7.07485 0.490128,-14.15983 0.840883,-21.23652 0.337984,-7.27823 0.737947,-14.55415 1.055262,-21.83325 0.273468,-6.2733 0.36309,-9.33037 0.490188,-15.63623 0.05488,-2.72276 0.08751,-5.44593 0.13127,-8.16889 0.0042,-2.61012 0.0331,-5.22032 0.01251,-7.83036 -0.05498,-6.97232 -0.406405,-13.931844 -0.823457,-20.890076 -0.02096,-0.186885 0.07745,-0.435456 -0.06287,-0.560662 -1.06362,-0.949037 -1.886961,-1.27975 -3.14555,-1.383372 -1.060722,-0.177413 -2.082974,-0.517951 -3.119064,-0.798779 -1.719776,-0.448887 -3.466155,-0.833768 -5.248553,-0.904759 0,0 1.597827,1.160891 1.597827,1.160891 z" />
    <path
       style="fill:#8e61aa;stroke:none;stroke-width:0.392642"
       id="path895"
       d="m 95.137466,103.70202 c 1.555618,0.0816 3.113506,0.18892 4.662043,0.3612 0.390291,0.0493 0.720951,0.0755 1.098261,0.17622 0.12307,0.0329 0.46844,0.19456 0.36042,0.12704 -3.661065,-2.04183 -1.535902,-1.06166 -1.303534,-0.64155 0.04717,0.0853 0.06201,0.1848 0.09302,0.2772 0.0182,0.17215 0.0437,0.34367 0.0544,0.51644 0.0806,1.29719 0.088,2.59434 0.18426,3.8921 0.0902,1.21623 0.43343,4.99811 0.51892,5.95599 1.24247,12.68882 1.58109,25.43942 1.86061,38.17842 0.15121,8.18145 0.17692,16.36451 0.11251,24.5469 -0.009,3.66941 0.0131,7.33871 0.004,11.00819 -0.0572,2.66394 0.009,5.3264 0.0753,7.98924 0.0177,0.84832 0.0109,0.46619 0.0217,1.14635 0,0 1.73836,0.87578 1.73836,0.87578 v 0 c -0.052,-0.69582 -0.0259,-0.30588 -0.0733,-1.17012 -0.12085,-2.67677 -0.20562,-5.35484 -0.17965,-8.03484 -0.002,-3.67145 0.039,-7.34323 -0.0121,-11.01433 -0.20209,-8.28338 -0.48726,-16.56455 -0.70014,-24.84766 -0.67337,-25.34397 0.27919,10.68321 -0.39719,-15.4955 -0.19365,-7.49536 -0.40007,-14.99169 -1.01839,-22.46689 -0.21761,-3.40773 -0.46423,-6.8154 -0.41869,-10.23197 -0.0198,-0.11124 -0.026,-0.22577 -0.0594,-0.33371 -0.36992,-1.19537 -2.37972,-1.46961 -3.49669,-1.59501 -1.568886,-0.15164 -3.142869,-0.25944 -4.714613,-0.37487 0,0 1.590249,1.15538 1.590249,1.15538 z" />
    <path
       style="fill:#8e61aa;stroke:none;stroke-width:0.392642"
       id="path897"
       d="m 103.30024,121.62799 c 0.20945,0.0348 0.42101,0.0587 0.62835,0.10436 0.76667,0.16899 1.9458,0.51698 2.6398,0.71561 2.00366,0.57348 3.99917,1.1674 5.98913,1.78663 0.9044,0.31141 1.93462,0.63633 2.81583,1.03873 0.29114,0.13294 1.15821,0.52507 0.84621,0.4537 -1.57743,-0.3608 -1.12652,-0.94826 -0.74245,-0.0117 0.10055,0.24518 0.12668,0.51462 0.19002,0.77192 0.0499,0.58275 0.12049,1.1641 0.14983,1.74825 0.22858,4.5514 0.13543,9.12055 0.10348,13.67484 -0.0298,4.24709 -0.0691,7.87661 -0.11135,12.1293 -0.0562,9.16325 -0.25646,18.32505 -0.33679,27.48793 -0.0315,2.90277 0.007,5.80394 0.13545,8.70368 0.0852,1.79145 0.12081,3.58462 0.1402,5.37781 8e-4,0.15536 0.002,0.31073 0.003,0.46609 0,0 1.73408,0.8802 1.73408,0.8802 v 0 c -0.004,-0.15729 -0.008,-0.31459 -0.0119,-0.47188 -0.053,-1.80572 -0.14203,-3.61019 -0.20504,-5.41557 -0.1261,-2.92724 -0.22031,-5.85579 -0.30956,-8.78437 -0.18555,-9.21969 -0.079,-18.4432 -0.0133,-27.6636 0.0757,-5.84363 0.16794,-11.68624 0.29665,-17.52897 0.002,-0.0905 0.17452,-7.27403 0.1792,-8.04934 0.003,-0.57511 -0.0264,-1.14995 -0.0396,-1.72492 -0.0609,-0.35396 -0.0955,-1.10078 -0.45426,-1.38134 -1.73298,-1.35531 -3.6816,-2.15663 -5.76309,-2.77866 -2.00465,-0.61427 -4.01336,-1.21386 -6.02368,-1.80932 -0.75152,-0.2226 -1.92869,-0.58949 -2.74768,-0.76915 -0.22569,-0.0495 -0.45654,-0.0716 -0.68481,-0.10741 0,0 1.59278,1.15722 1.59278,1.15722 z" />
    <path
       style="fill:#8e61aa;stroke:none;stroke-width:0.392642"
       id="path899"
       d="m 118.52488,146.62811 c 3.35371,-0.0799 6.70823,-0.0863 10.06086,0.0315 0.32579,0.0247 1.35262,0.073 1.75189,0.19336 0.13916,0.042 0.51657,0.26407 0.3805,0.21296 -0.50439,-0.18947 -0.95077,-0.65686 -1.48887,-0.62931 -0.23473,0.012 0.02,0.47024 0.01,0.70506 -0.0166,0.38192 -0.0601,0.7622 -0.0902,1.1433 -0.48168,7.32781 -0.66604,14.66971 -0.79942,22.01063 -0.0558,4.78799 -0.18626,9.57579 -0.1554,14.36435 0.0287,3.41733 0.0314,6.83475 -0.003,10.25202 -0.0727,1.17 0.0443,2.35612 -0.073,3.52354 -0.0123,0.0536 -0.0245,0.1072 -0.0368,0.16079 0,0 1.74433,0.93491 1.74433,0.93491 v 0 c 0.0121,-0.0621 0.0242,-0.12426 0.0363,-0.18639 0.10551,-1.19159 -0.0767,-2.40002 -0.0237,-3.59377 -0.0413,-3.42538 -0.0491,-6.85094 -0.0441,-10.27655 -0.003,-4.82876 -0.15701,-9.6569 -0.09,-14.48608 0.087,-7.28788 0.2309,-14.59579 1.098,-21.84007 0.0463,-0.3774 0.0992,-0.75405 0.13882,-1.1322 0.0266,-0.25366 0.2202,-0.56442 0.0599,-0.76281 -1.28827,-1.59449 -2.17051,-1.60792 -3.89526,-1.67504 -3.38515,-0.0552 -6.77083,-0.0182 -10.15573,-0.0945 0,0 1.5751,1.14438 1.5751,1.14438 z" />
    <path
       style="fill:#8e61aa;stroke:none;stroke-width:0.392642"
       id="path901"
       d="m 128.64628,162.62656 c 2.1448,0.22466 4.30351,0.24964 6.45759,0.29872 1.54969,0.073 3.13174,-0.0329 4.66454,0.25638 0.98209,0.43525 -0.81014,-0.52524 -1.25041,-0.71805 -0.0795,-0.0348 0.10845,0.1399 0.13576,0.22232 0.0489,0.14749 0.0654,0.30396 0.0895,0.45745 0.0863,0.54874 0.18643,1.47408 0.24458,1.97435 0.58994,4.69678 0.89091,9.42237 1.17438,14.14545 0.30023,5.11997 0.50511,10.24387 0.59252,15.3718 0.004,0.49809 0.009,0.99619 0.0133,1.49428 0,0 1.62567,0.8232 1.62567,0.8232 v 0 c -0.0207,-0.5065 -0.0414,-1.013 -0.0621,-1.5195 -0.19658,-5.14067 -0.38254,-10.28227 -0.67343,-15.41869 -0.27593,-4.69353 -0.5578,-9.38668 -1.00363,-14.06799 -0.10409,-1.26421 -0.069,-0.88158 -0.16749,-1.94533 -0.0138,-0.14881 -0.0412,-0.72916 -0.1393,-0.80035 -1.40472,-1.01962 -1.23979,-0.94855 -2.14243,-1.19306 -1.52005,-0.20127 -3.06134,-0.11921 -4.5896,-0.16863 -2.18082,-0.0497 -4.36874,-0.0919 -6.53394,-0.38099 0,0 1.56446,1.16864 1.56446,1.16864 z" />
    <path
       style="fill:#8e61aa;stroke:none;stroke-width:0.392642"
       id="path903"
       d="m 40.593126,159.19588 c -1.518486,0.021 -3.035297,0.0158 -4.552561,0.0863 -0.580999,0.0763 -1.599938,-0.0735 -2.047745,0.41534 -0.252815,0.27599 -0.293873,0.59224 -0.392393,0.93764 -0.03075,0.20396 -0.07565,0.40629 -0.09225,0.61188 -0.08283,1.02583 0.01992,2.10241 0.09962,3.12337 0.124293,1.59216 0.281826,3.18155 0.418584,4.77268 0.577879,6.35676 0.8407,12.73544 0.975383,19.11516 0.04207,2.8782 0.05856,5.75721 0.01397,8.63548 0,0 1.684007,0.85683 1.684007,0.85683 v 0 c -0.07722,-2.91675 -0.140888,-5.83386 -0.232338,-8.75023 -0.190109,-6.37335 -0.432025,-12.745 -0.93299,-19.10304 -0.143293,-2.23699 -0.177699,-2.60504 -0.275471,-4.69569 -0.04702,-1.00557 -0.133839,-2.04645 -0.0457,-3.05336 0.01722,-0.19673 0.05905,-0.39052 0.08857,-0.58577 0.07843,-0.27509 0.121325,-0.58924 0.335891,-0.80666 0.385191,-0.39031 1.463099,-0.29084 1.951951,-0.35924 1.533096,-0.073 3.066854,-0.0804 4.601305,-0.0398 0,0 -1.59783,-1.16089 -1.59783,-1.16089 z" />
    <path
       style="fill:#8e61aa;stroke:none;stroke-width:0.392642"
       id="path905"
       d="m 40.648024,161.01974 c 0.868741,0.004 1.741342,-0.046 2.607879,0.0262 0.582335,0.0702 1.16409,0.14085 1.749801,0.17512 0.354883,0.0112 0.172423,0.007 0.547391,0.0128 0,0 -1.587627,-1.15936 -1.587627,-1.15936 v 0 c -0.375685,-0.0122 -0.193204,-0.005 -0.547463,-0.0224 -0.579747,-0.0395 -1.155906,-0.11273 -1.734547,-0.16474 -0.876091,-0.0443 -1.753918,-0.001 -2.630734,-0.0267 0,0 1.5953,1.15905 1.5953,1.15905 z" />
    <circle
       id="path1226"
       style="fill:#8e61aa;stroke:#000000;stroke-width:0.264583"
       cx="72.142769"
       cy="138.97443"
       r="0.04374348" />
  </g>
</svg>
