<?xml version="1.0" encoding="UTF-8" standalone="no"?>
<!-- Created with Inkscape (http://www.inkscape.org/) -->

<svg
   width="179.85324mm"
   height="151.17122mm"
   viewBox="0 0 179.85324 151.17122"
   version="1.1"
   id="svg5"
   inkscape:export-filename="boxplot_sketch.svg"
   inkscape:export-xdpi="96"
   inkscape:export-ydpi="96"
   xmlns:inkscape="http://www.inkscape.org/namespaces/inkscape"
   xmlns:sodipodi="http://sodipodi.sourceforge.net/DTD/sodipodi-0.dtd"
   xmlns="http://www.w3.org/2000/svg"
   xmlns:svg="http://www.w3.org/2000/svg">
  <sodipodi:namedview
     id="namedview7"
     pagecolor="#505050"
     bordercolor="#eeeeee"
     borderopacity="1"
     inkscape:showpageshadow="0"
     inkscape:pageopacity="0"
     inkscape:pagecheckerboard="0"
     inkscape:deskcolor="#505050"
     inkscape:document-units="mm"
     showgrid="false"
     inkscape:zoom="0.84541947"
     inkscape:cx="41.399567"
     inkscape:cy="251.35451"
     inkscape:window-width="2048"
     inkscape:window-height="1099"
     inkscape:window-x="0"
     inkscape:window-y="25"
     inkscape:window-maximized="0"
     inkscape:current-layer="layer1" />
  <defs
     id="defs2" />
  <g
     inkscape:label="Layer 1"
     inkscape:groupmode="layer"
     id="layer1"
     transform="translate(-5.804606,-68.190154)">
    <path
       id="path235"
       style="fill:#8e61aa;stroke:none;stroke-width:0.392642"
       d="m 27.944032,68.190154 c -0.03646,0.762302 -0.05792,0.931273 -0.01499,1.821077 0.201877,4.183581 0.655127,8.361016 1.002522,12.533601 0.998654,12.10121 1.241351,24.241708 1.488797,36.375558 0.261969,11.38466 0.372555,22.77153 0.507979,34.15812 0.108728,9.70814 0.143383,19.41668 0.135393,29.12536 0.04505,6.94107 -0.0048,13.88248 -0.130226,20.8225 l 3.234428,1.64796 c -0.122216,-6.99058 -0.176278,-13.98227 -0.164846,-20.97391 -0.07211,-9.74315 -0.155636,-19.48623 -0.329697,-29.22819 -0.0064,-0.41743 -0.170646,-11.10915 -0.174665,-11.44633 -0.09029,-7.5779 -0.05936,-15.15855 -0.366387,-22.73247 -0.378677,-12.08915 -0.64422,-24.182998 -1.234548,-36.26445 -0.234096,-3.772495 -0.266642,-4.078499 -0.440801,-7.664648 -0.102005,-2.100369 -0.259377,-4.23141 -0.01344,-6.32778 z" />
    <path
       style="fill:#8e61aa;stroke:none;stroke-width:0.392642"
       id="path843"
       d="m 24.063677,198.84324 c 3.399062,-0.48178 6.829612,-0.64112 10.256625,-0.76793 3.323717,-0.0568 6.647381,0.0429 9.968818,0.15668 2.108292,0.0864 4.219175,0.0455 6.32851,0.0343 3.824965,-0.01 7.649816,-0.0305 11.474799,-0.026 3.912463,-0.0345 7.822425,0.0475 11.73322,0.14724 4.056394,0.0325 8.106723,0.22158 12.156125,0.44501 4.135089,0.25204 8.278035,0.2815 12.419198,0.31604 4.177398,0.0314 8.354998,0.0367 12.532508,0.0399 4.03412,-0.009 8.06823,-0.008 12.10236,-0.005 3.68286,0.0302 7.36349,0.018 11.04479,-0.0905 4.12895,-0.12722 8.25936,-0.18992 12.39007,-0.2165 4.20774,0.018 8.41192,-0.16269 12.61428,-0.34992 5.56887,-0.32911 11.14532,-0.47247 16.72259,-0.54969 3.28335,-0.0369 6.5668,-0.0485 9.85028,-0.0268 0,0 -3.03217,-2.20178 -3.03217,-2.20178 v 0 c -3.23766,0.0392 -6.47574,0.0567 -9.71281,0.13373 -5.58501,0.13162 -11.16974,0.29083 -16.75098,0.53769 -4.20818,0.13205 -8.41605,0.32233 -12.627,0.3268 -4.14668,0.0288 -8.29363,0.0497 -12.43845,0.19067 -3.67635,0.0907 -7.35271,0.0903 -11.0301,0.089 -4.03529,0.004 -8.07057,0.008 -12.10587,0.002 -4.16335,0.005 -8.326706,0.0154 -12.49002,-0.0132 -4.150569,-0.0427 -8.301522,-0.11972 -12.446349,-0.3565 -4.049382,-0.22168 -8.100608,-0.37883 -12.156115,-0.43187 -3.910314,-0.1037 -7.819996,-0.19504 -11.732151,-0.13464 -3.850421,0.005 -7.70074,-0.013 -11.551116,-0.0304 -2.127752,-0.0189 -4.255143,-0.0546 -6.382752,-0.0836 -3.28,-0.0362 -6.560625,-0.0969 -9.840688,-0.0354 -3.50031,0.13993 -7.000048,0.30187 -10.48735,0.64693 0,0 3.189748,2.2535 3.189748,2.2535 z" />
    <g
       id="g1633"
       transform="rotate(-90,24.346936,142.12993)">
      <path
         style="fill:#8e61aa;stroke:none;stroke-width:0.392642"
         id="path851"
         d="m -6.653101,123.9016 c 0.201229,3.48839 0.149066,6.98437 -0.01386,10.47263 -0.07196,1.54307 -0.251082,3.07648 -0.45116,4.6069 0,0 1.590546,0.83225 1.590546,0.83225 v 0 c 0.136051,-1.5582 0.269028,-3.11705 0.334036,-4.68028 0.139928,-3.44568 0.132056,-6.89454 0.291849,-10.33912 0,0 -1.751412,-0.89238 -1.751411,-0.89238 z" />
      <path
         style="fill:#8e61aa;stroke:none;stroke-width:0.392642"
         id="path853"
         d="m -4.630636,124.77106 c 1.284512,0.25558 2.541558,0.65044 3.709225,1.24974 0.267835,0.13747 0.523695,0.29711 0.785543,0.44567 -0.307507,-0.1544 -0.57847,-0.45799 -0.92252,-0.46319 -0.23123,-0.003 0.366059,0.28625 0.521861,0.45714 0.140023,0.15359 0.27555,0.31933 0.359402,0.5095 0.146159,0.33147 0.140684,0.78243 0.02408,1.11949 -0.06813,0.19693 -0.198919,0.36622 -0.298378,0.54933 -0.801995,0.97062 -1.904659,1.61818 -3.039335,2.12902 -0.468725,0.18529 -0.950857,0.34075 -1.405848,0.55881 -1.326438,0.55463 0.181965,0.84623 1.353291,1.4885 1.439119,0.13488 2.869864,0.35541 4.259874,0.7552 1.330174,0.65762 -0.529807,-0.35993 -0.820132,-0.49135 -0.10622,-0.0481 0.181306,0.14899 0.255304,0.23909 0.264441,0.32198 0.26646,0.63288 0.257866,1.02836 -0.212836,1.08203 -0.890326,1.97554 -1.721834,2.6759 -0.208857,0.17591 -0.437917,0.32634 -0.656876,0.48951 -1.418299,0.97878 -3.118136,1.15977 -4.779544,1.37151 -0.321527,0.0473 -0.64755,0.0643 -0.962573,0.14706 0,0 1.633559,1.1166 1.633559,1.1166 v 0 c 0.280048,-0.0951 0.577029,-0.12382 0.866232,-0.17897 1.67481,-0.25333 3.394043,-0.45207 4.81571,-1.46118 0.223319,-0.16892 0.456348,-0.32572 0.669955,-0.50677 0.866576,-0.7345 1.584486,-1.64734 1.85027,-2.7679 0.02917,-0.33976 0.07728,-0.49841 -0.02162,-0.82744 -0.05811,-0.19335 -0.232362,-0.50845 -0.409816,-0.62351 -1.64838,-1.06872 -1.392949,-0.93979 -2.480257,-1.36561 -1.423963,-0.36383 -2.880328,-0.5462 -4.32743,-0.79222 1.900757,1.17986 0.897983,1.22408 1.861553,0.79091 0.451147,-0.20498 0.912852,-0.38567 1.365737,-0.58677 1.140238,-0.56932 2.257195,-1.25076 3.074784,-2.24656 0.112546,-0.20018 0.257804,-0.38523 0.337637,-0.60056 0.131562,-0.35488 0.163571,-0.89037 0.03208,-1.25149 -0.435158,-1.1951 -2.409272,-1.86352 -3.132712,-2.42431 -0.262096,-0.1425 -0.518689,-0.29564 -0.786288,-0.42752 -1.215531,-0.59909 -2.520223,-0.98834 -3.837573,-1.28945 0,0 1.568765,1.18346 1.568765,1.18346 z" />
      <path
         style="fill:#8e61aa;stroke:none;stroke-width:0.392642"
         id="path855"
         d="m 3.889812,135.09786 c -0.811265,0.59702 -1.369708,1.46718 -1.838494,2.34315 -0.04128,0.15752 -0.10795,0.31051 -0.123831,0.47257 -0.07799,0.79588 0.537242,1.19065 1.159333,1.53586 2.65367,1.47258 1.745541,1.1803 3.842396,1.55229 1.428758,0.0842 3.110444,0.14628 4.263704,-0.87818 0.181351,-0.1611 0.345716,-0.35279 0.450303,-0.57165 0.08795,-0.18405 0.07367,-0.40126 0.1105,-0.60189 -0.07797,-0.20292 -0.11004,-0.43013 -0.233926,-0.60876 -0.28248,-0.40731 -0.913558,-0.83805 -1.326838,-1.07715 -1.546521,-0.89475 -2.220301,-1.32734 -3.716535,-1.77551 -0.555231,-0.0943 -1.434984,-0.15077 -1.847776,0.35357 -0.03841,0.0469 -0.0505,0.11029 -0.07575,0.16543 0,0 1.732106,0.95612 1.732106,0.95612 v 0 c 0.01323,-0.12644 -0.0083,-0.0999 0.156615,-0.19949 0.466267,-0.28162 1.02326,-0.22743 1.531575,-0.11869 0.202422,0.0634 0.408082,0.11725 0.607261,0.1902 0.238458,0.0873 0.812657,0.51991 0.704408,0.29019 -0.13911,-0.29522 -0.576985,-0.31717 -0.819846,-0.53518 -0.214339,-0.1924 0.499816,0.28844 0.733129,0.45734 0.210798,0.1526 0.426233,0.30712 0.595704,0.50461 0.125608,0.14637 0.182975,0.3396 0.274463,0.50941 -0.01479,0.17555 0.02318,0.36394 -0.04434,0.52668 -0.181271,0.43699 -0.680641,0.80345 -1.081855,0.98892 -1.076259,0.49754 -2.286016,0.45752 -3.433106,0.34912 -0.430519,-0.0942 -0.861041,-0.1884 -1.291561,-0.28261 0.199213,0.15938 0.840068,0.39868 0.597638,0.47815 -0.268226,0.0879 -0.502052,-0.26412 -0.725863,-0.43612 -0.539977,-0.41496 -0.530553,-0.6941 -0.377063,-1.29503 0.438862,-0.84925 0.978546,-1.71618 1.825104,-2.20938 0,0 -1.647452,-1.08397 -1.647452,-1.08397 z" />
      <path
         style="fill:#8e61aa;stroke:none;stroke-width:0.392642"
         id="path861"
         d="m 17.427734,129.30927 c 0.0073,2.35396 0.286945,4.69908 0.577245,7.03211 0.17635,1.24805 0.30326,2.50278 0.47366,3.75154 0.59777,0.24022 1.16774,0.5667 1.7933,0.72065 0.0894,0.022 0.0117,-0.18374 0.0145,-0.27574 0.003,-0.11377 0.005,-0.22761 0.004,-0.34143 -10e-4,-0.496 -0.009,-0.99209 -0.0105,-1.48813 -0.04,-0.58407 0.10672,-1.23244 -0.12917,-1.79169 -0.0334,-0.0791 -0.0849,-0.14924 -0.1273,-0.22386 -0.053,-0.0616 -0.10154,-0.1275 -0.15916,-0.18488 -0.10626,-0.10584 -0.26496,-0.22693 -0.39563,-0.30177 -0.77353,-0.44307 -1.47062,-0.95024 -2.304874,-1.22048 -0.421767,-0.11902 -0.862113,-0.16562 -1.298311,-0.12856 -0.71066,0.11559 -1.067202,0.51787 -1.437978,1.10338 -0.317014,0.6968 -0.52405,1.47076 -0.442998,2.24267 0.01611,0.15337 0.05496,0.3035 0.08244,0.45526 0.550304,1.72484 1.232434,1.70616 2.959039,2.66341 0.483848,0.11308 0.968672,0.0109 1.406742,-0.20633 0.14784,-0.0599 0.26887,-0.16324 0.39861,-0.2529 0,0 -1.667155,-1.0624 -1.667155,-1.0624 v 0 c -0.119468,0.0843 -0.23686,0.17225 -0.37343,0.22807 -0.417338,0.17883 -0.856597,0.24704 -1.293085,0.0841 3.17373,1.91052 1.19422,0.81422 0.868455,0.45563 -0.276918,-0.30483 -0.43075,-0.68843 -0.567116,-1.0702 -0.03224,-0.14312 -0.0761,-0.28411 -0.09672,-0.42935 -0.103825,-0.73112 0.09222,-1.47295 0.39574,-2.13271 0.353576,-0.54017 0.693592,-0.87614 1.361395,-0.93229 0.424766,-0.004 0.849306,0.0465 1.251386,0.19006 0.67141,0.26723 1.47347,0.81928 -1.069969,-0.69357 -0.06921,-0.0412 0.143619,0.0733 0.212099,0.11568 0.19099,0.11819 0.21025,0.1482 0.37421,0.29523 0.0507,0.0596 0.11138,0.11189 0.15202,0.1787 0.29713,0.48852 0.14364,1.21246 0.19398,1.74983 0.002,0.49044 0.002,0.98014 -0.0128,1.47042 -0.003,0.10976 -0.006,0.21955 -0.0117,0.32921 -0.004,0.0831 -0.0845,0.19865 -0.0182,0.24891 0.53899,0.4086 1.15654,0.70161 1.73481,1.05242 -0.13735,-0.30067 -0.16937,-0.67079 -0.2231,-0.99031 -0.15789,-0.93902 -0.30259,-1.88034 -0.44347,-2.82203 -0.3076,-2.27993 -0.6358,-4.59735 -0.42306,-6.90026 0,0 -1.748299,-0.91837 -1.748299,-0.91837 z" />
      <path
         style="fill:#8e61aa;stroke:none;stroke-width:0.392642"
         id="path863"
         d="m 20.873929,136.43224 c 0.0292,0.33647 0.0209,0.50877 0.15716,0.83715 0.11409,0.27494 0.35734,0.65078 0.61596,0.81326 1.97583,1.2414 1.41824,1.07715 2.73986,1.30277 1.09579,0.0438 2.16861,-0.28551 3.02694,-0.97778 0.13594,-0.10964 0.25395,-0.23981 0.38093,-0.35972 0.0942,-0.10048 0.17084,-0.22097 0.28261,-0.30145 0.0553,-0.0398 0.13275,-0.0303 0.19912,-0.0454 -0.52424,-0.25888 -1.01728,-0.59404 -1.5727,-0.77664 -0.1104,-0.0363 0.12125,0.20069 0.15708,0.31124 0.11622,0.35865 0.15495,0.83971 0.19993,1.20286 0.11612,1.3552 0.20123,2.74581 -0.20169,4.06599 -0.081,0.26525 -0.19767,0.51823 -0.2965,0.77735 -0.15161,0.24399 -0.27851,0.50519 -0.45483,0.73197 -0.5116,0.65803 -1.20314,1.16483 -2.01854,1.36444 -0.50893,0.12459 -0.87551,0.0875 -1.38341,0.0774 -0.60085,-0.0535 -0.33032,-0.014 -0.8137,-0.10301 0,0 1.55884,1.16658 1.55884,1.16658 v 0 c 0.46688,0.046 0.20463,0.0264 0.78744,0.0485 0.52361,-0.0168 0.8766,0.001 1.3979,-0.15073 1.15672,-0.33672 1.98071,-1.20483 2.55094,-2.23119 0.10207,-0.26661 0.22141,-0.52722 0.30619,-0.79982 0.41482,-1.33376 0.34804,-2.73355 0.2583,-4.10818 -0.0371,-0.42406 -0.0592,-0.80532 -0.13471,-1.22234 -0.0237,-0.13074 0.0133,-0.30894 -0.0939,-0.38738 -0.48291,-0.3532 -1.43885,-1.51532 -2.09849,-0.92317 -0.0982,0.0882 -0.17357,0.19886 -0.26035,0.29828 -0.11858,0.11378 -0.2281,0.23783 -0.35575,0.34133 -0.83029,0.67316 -1.87972,0.95219 -2.93535,0.85297 -0.77756,-0.19192 -1.25662,-0.37522 0.54448,0.57107 0.14949,0.0785 -0.27318,-0.20228 -0.38654,-0.32743 -0.2928,-0.32325 -0.41009,-0.71681 -0.41616,-1.14347 0,0 -1.74105,-0.90542 -1.74105,-0.90542 z" />
      <path
         style="fill:#8e61aa;stroke:none;stroke-width:0.392642"
         id="path865"
         d="m 38.589559,135.70216 c 0.0599,0.62268 0.0133,1.24804 -0.0632,1.86685 -0.0264,0.21388 -0.0906,0.74134 -0.19394,0.97845 -0.0196,0.045 -0.0714,0.0674 -0.10716,0.10104 0.54851,0.2486 1.05379,0.63395 1.64552,0.74581 0.14746,0.0279 -0.064,-0.29612 -0.0604,-0.44615 0.0132,-0.54617 0.17978,-1.32263 0.49913,-1.77812 0.0736,-0.10493 0.18741,-0.17483 0.28111,-0.26225 0.0996,0.005 0.2062,-0.021 0.29881,0.0161 0.11872,0.0475 0.42761,0.27523 0.30911,0.22718 -0.44129,-0.17893 -0.82208,-0.51364 -1.28552,-0.62309 -0.17022,-0.0402 0.22941,0.26415 0.33987,0.39976 0.10295,0.12639 0.16089,0.30142 0.3002,0.38607 0.64991,0.39493 1.35628,0.6884 2.03442,1.0326 0.15341,-0.0877 0.32392,-0.15058 0.46024,-0.26299 0.28697,-0.2366 0.80624,-0.90318 1.02357,-1.17222 0.13732,-0.16999 0.78024,-0.98173 0.95137,-1.16862 0.12096,-0.13211 0.25854,-0.24799 0.38781,-0.37197 0.11251,-0.0515 0.2152,-0.13591 0.33753,-0.15453 0.0988,-0.015 0.196,0.0389 0.29401,0.0584 -0.44071,-0.23371 -0.85309,-0.53129 -1.32213,-0.70113 -0.18102,-0.0656 0.30043,0.24224 0.43501,0.3799 0.39452,0.40353 0.53373,0.64961 0.85558,1.11641 0.37125,0.567 0.63442,1.18835 0.88873,1.81285 0,0 1.7241,0.79565 1.7241,0.79565 v 0 c -0.26168,-0.63526 -0.52931,-1.26909 -0.89155,-1.85585 -0.24615,-0.3782 -0.82812,-1.30871 -1.21272,-1.55303 -0.66009,-0.41932 -1.33842,-0.81555 -2.04757,-1.14517 -0.10436,-0.0485 -0.2354,-0.005 -0.34359,0.0337 -0.12793,0.0464 -0.2308,0.14422 -0.3462,0.21633 -0.46866,0.50288 -0.86907,1.04871 -1.30715,1.57786 -0.2387,0.28831 -0.69608,0.84774 -1.02946,1.07391 -0.11876,0.0806 -0.26799,0.10276 -0.40199,0.15414 0.42414,0.29664 0.81193,0.65364 1.27243,0.88993 0.14723,0.0755 -0.2019,-0.26226 -0.30358,-0.39281 -0.10857,-0.1394 -0.18571,-0.31117 -0.32717,-0.41703 -0.63832,-0.47768 -1.31445,-0.90395 -1.99437,-1.32028 -0.11733,-0.0718 -0.25126,-0.13181 -0.38865,-0.1389 -0.12427,-0.006 -0.23972,0.0669 -0.35957,0.10031 -0.0969,0.10937 -0.21331,0.2042 -0.29076,0.32812 -0.31972,0.5116 -0.4725,1.26307 -0.55321,1.85244 -0.0238,0.17411 -0.16618,0.41129 -0.0332,0.52618 0.5369,0.46382 1.23568,0.69759 1.85353,1.04639 0.0377,-0.0634 0.0902,-0.12013 0.11324,-0.19025 0.0778,-0.23701 0.13981,-0.81843 0.16394,-1.02221 0.0732,-0.61868 0.14319,-1.2402 0.14308,-1.86411 0,0 -1.74926,-0.87563 -1.74926,-0.87563 z" />
      <path
         style="fill:#8e61aa;stroke:none;stroke-width:0.392642"
         id="path867"
         d="m 54.766469,133.36611 c -1.07402,-0.16953 -2.11554,0.32352 -2.96048,0.95125 -0.28506,0.21178 -0.53925,0.46222 -0.80887,0.69333 -0.23532,0.26279 -0.50067,0.50152 -0.70596,0.78839 -0.40564,0.56685 -0.81921,1.41028 -0.35797,2.0733 0.10188,0.14645 0.25199,0.26094 0.40966,0.34442 0.70404,0.37277 1.44166,0.67831 2.16249,1.01746 0.19002,-0.0932 0.39743,-0.15706 0.57005,-0.27948 0.9268,-0.65726 1.55295,-1.98752 2.06121,-2.97866 0.46986,-0.90162 0.70558,-0.67279 -1.47735,-1.25715 -0.10848,-0.029 -0.003,0.22459 -0.005,0.33688 -0.0119,0.72426 -0.0123,0.31756 0.003,1.11958 0.0273,0.74657 0.174,1.47692 0.35599,2.19857 0,0 1.74059,0.82815 1.74059,0.82815 v 0 c -0.21505,-0.70593 -0.3764,-1.42526 -0.40402,-2.16635 2.7e-4,-0.46562 -0.011,-0.63979 0.0289,-1.08473 0.0102,-0.11391 0.13373,-0.26713 0.0456,-0.34006 -1.84011,-1.52311 -1.5163,-1.56773 -1.94268,-0.57489 -0.44,0.94945 -1.06268,2.30565 -1.98866,2.86368 -0.15627,0.0942 -0.34406,0.12156 -0.5161,0.18233 0.38164,0.27848 0.78193,0.53306 1.14493,0.83544 0.1333,0.11103 -0.3273,-0.13747 -0.45193,-0.25817 -0.12815,-0.12411 -0.25169,-0.27843 -0.28343,-0.45399 -0.0408,-0.22557 0.008,-0.46489 0.0778,-0.68328 0.23904,-0.74924 0.55441,-0.96195 1.07958,-1.54481 0.26844,-0.22067 0.52038,-0.46313 0.80535,-0.66202 0.8697,-0.60697 1.92552,-1.00738 2.98598,-0.75595 0,0 -1.56903,-1.19324 -1.56903,-1.19324 z" />
      <path
         style="fill:#8e61aa;stroke:none;stroke-width:0.392642"
         id="path869"
         d="m 64.078489,130.47158 c -1.00784,0.73935 -2.12664,1.43626 -2.86746,2.47059 -0.17219,0.24041 -0.28788,0.51663 -0.43182,0.77494 -0.031,0.26028 -0.12527,0.52071 -0.093,0.78084 0.15251,1.23046 1.53372,2.07454 2.37111,2.84156 0.007,0.0992 0.0681,0.21027 0.0205,0.29757 -0.17015,0.31227 -0.97259,0.74341 -1.16502,0.84978 -0.84519,0.46721 -1.73932,0.84473 -2.62158,1.23452 0,0 1.55847,1.03142 1.55847,1.03142 v 0 c 0.86582,-0.42704 1.75505,-0.81422 2.60916,-1.26408 0.35076,-0.18474 1.11379,-0.55146 1.34508,-0.97186 0.0729,-0.13251 0.0143,-0.30215 0.0215,-0.45322 -0.13486,-0.12546 -0.26283,-0.25875 -0.40457,-0.37638 -0.71295,-0.59171 -1.87717,-1.33761 -2.07233,-2.32377 -0.0468,-0.2366 0.0266,-0.48164 0.04,-0.72246 0.13248,-0.24832 0.2333,-0.51634 0.39745,-0.74497 0.69782,-0.97194 1.92769,-1.7463 2.94039,-2.36447 0,0 -1.64779,-1.06001 -1.64779,-1.06001 z" />
      <path
         style="fill:#8e61aa;stroke:none;stroke-width:0.392642"
         id="path871"
         d="m 71.004189,131.88348 c -0.84283,0.1622 -2.13852,0.49534 -2.62595,1.26353 -0.11577,0.18245 -0.12669,0.41317 -0.19004,0.61975 -0.0838,0.70335 0.52692,1.25795 0.53992,1.93947 0.0172,0.90129 -0.66673,1.55018 -1.22578,2.14664 -0.58571,0.5577 -1.27075,0.98417 -1.94792,1.41753 0,0 1.58824,1.01731 1.58824,1.01731 v 0 c 0.6682,-0.46049 1.34398,-0.91447 1.9333,-1.47725 0.60061,-0.63762 1.32167,-1.33792 1.35228,-2.29179 0.0216,-0.67352 -0.55116,-1.18011 -0.57067,-1.84463 0.0417,-0.17909 0.0283,-0.38091 0.12504,-0.53728 0.45144,-0.72976 1.82449,-1.02977 2.62568,-1.11208 0,0 -1.6041,-1.1412 -1.6041,-1.1412 z" />
    </g>
    <path
       style="fill:#8e61aa;stroke:none;stroke-width:0.392642"
       id="path1635"
       d="m 57.07944,202.80045 c -0.844315,1.59831 -1.805234,3.12949 -2.755085,4.66583 0,0 1.562533,0.91009 1.562533,0.91009 v 0 c 0.976387,-1.52409 1.952067,-3.04836 2.881437,-4.60185 0,0 -1.688885,-0.97407 -1.688885,-0.97407 z" />
    <path
       style="fill:#8e61aa;stroke:none;stroke-width:0.392642"
       id="path1637"
       d="m 56.309687,203.83553 c -0.962496,2.50515 -2.317258,4.83393 -3.601823,7.18233 -1.412586,2.41517 -2.642732,4.96001 -4.32377,7.20656 0,0 1.664038,0.98377 1.664038,0.98377 v 0 c 1.614004,-2.30262 2.845774,-4.84617 4.256172,-7.27306 1.298763,-2.34965 2.668403,-4.67082 3.730361,-7.14124 0,0 -1.724978,-0.95836 -1.724978,-0.95836 z" />
    <path
       style="fill:#8e61aa;stroke:none;stroke-width:0.392642"
       id="path1639"
       d="m 57.124861,205.11654 c 1.176909,2.70138 2.34719,5.40589 3.531986,8.1043 0.544502,1.21137 0.985861,2.46381 1.366493,3.73497 0,0 1.766025,0.83569 1.766025,0.83569 v 0 c -0.391096,-1.29116 -0.853522,-2.55954 -1.418727,-3.78577 -1.196581,-2.6684 -2.390055,-5.33732 -3.450077,-8.06402 0,0 -1.7957,-0.82517 -1.7957,-0.82517 z" />
    <path
       style="fill:#8e61aa;stroke:none;stroke-width:0.392642"
       id="path1641"
       d="m 54.919643,213.88781 c 1.230749,-0.28624 2.496262,-0.38637 3.754192,-0.47171 0.814707,-0.12346 1.560695,0.09 2.32307,0.33095 0,0 -1.561832,-1.20909 -1.561832,-1.20909 v 0 c -0.767623,-0.24006 -1.538881,-0.3695 -2.347738,-0.25694 -1.272553,0.0996 -2.550867,0.21277 -3.799057,0.48955 0,0 1.631365,1.11724 1.631365,1.11724 z" />
    <path
       style="fill:#8e61aa;stroke:none;stroke-width:0.392642"
       id="path1643"
       d="m 103.39483,203.52835 c -2.91719,0.85793 -5.851008,1.67023 -8.672276,2.81103 -0.426545,0.23821 -0.876861,0.43812 -1.279636,0.71463 -1.455666,0.99934 -2.697258,2.59966 -3.244051,4.2881 -0.121708,0.37581 -0.152556,0.77519 -0.228833,1.16279 0.03239,0.36629 -0.04118,0.75817 0.09718,1.09887 0.383802,0.94508 1.29041,1.46764 2.138529,1.90077 1.09637,0.5599 2.198211,1.12141 3.352554,1.54921 0.963967,0.35724 3.353721,0.64864 4.325271,0.79027 2.897772,0.39792 5.825402,0.35806 8.723512,0.0154 0,0 -1.56478,-1.10705 -1.56478,-1.10705 v 0 c -2.85694,0.38628 -5.74732,0.41533 -8.607215,0.006 -0.750469,-0.11552 -1.506011,-0.20188 -2.251408,-0.34656 -0.698955,-0.13566 -1.370029,-0.41944 -2.078136,-0.4938 -0.100605,-0.0106 -0.0627,0.29215 -0.158252,0.25894 -0.705165,-0.24505 -1.818542,-0.97496 -2.169483,-1.72399 -0.150021,-0.3202 -0.08574,-0.70198 -0.128611,-1.05298 0.06657,-0.37596 0.08626,-0.76332 0.199707,-1.12789 0.516657,-1.6603 1.742501,-3.21963 3.168296,-4.19252 0.396322,-0.27043 0.837808,-0.46785 1.25671,-0.70178 2.831356,-1.14726 5.776302,-1.99398 8.740622,-2.72592 0,0 -1.6197,-1.12351 -1.6197,-1.12351 z" />
    <path
       style="fill:#8e61aa;stroke:none;stroke-width:0.392642"
       id="path1645"
       d="m 148.50251,204.10818 c -1.9552,0.34532 -3.92144,0.86911 -5.72165,1.72428 -0.46054,0.21877 -0.89609,0.48666 -1.34414,0.72999 -1.90012,1.2579 -3.6626,3.07338 -4.10986,5.40301 -0.0719,0.37461 -0.0448,0.76158 -0.0671,1.14237 0.25561,0.36483 0.43561,0.79662 0.76682,1.09449 0.42372,0.38107 0.94714,0.63834 1.45259,0.90152 2.2658,1.17973 3.79086,1.95457 6.25198,2.15755 0.39711,0.0328 0.79691,0.004 1.19537,0.006 0.76725,-0.0188 1.4565,-0.27654 2.15216,-0.56411 0.10107,-0.0418 0.19826,-0.0936 0.30191,-0.12845 0.05,-0.0168 0.20249,-2.7e-4 0.15626,-0.0258 -0.53479,-0.29468 -1.09957,-0.5313 -1.64936,-0.79695 0.18515,0.91175 0.37565,1.82365 0.49472,2.74679 0,0 1.74732,0.8625 1.74732,0.8625 v 0 c -0.11773,-0.92938 -0.32988,-1.84168 -0.44391,-2.77178 -0.59516,-0.38861 -1.16739,-0.81484 -1.78548,-1.16584 -0.0259,-0.0147 -0.36968,0.15859 -0.4474,0.19247 -0.66265,0.28881 -1.32976,0.51169 -2.0636,0.53196 -1.19761,-0.0164 -1.30417,0.0358 -2.55175,-0.22928 -0.53065,-0.11278 -1.03315,-0.36709 -1.57345,-0.41601 -0.0908,-0.008 0.0357,0.30062 -0.0499,0.26902 -1.37954,-0.50963 -1.42328,-0.79155 -2.25982,-1.79132 0.0118,-0.36797 -0.0274,-0.74115 0.0354,-1.1039 0.29995,-1.73189 1.48984,-3.34559 2.81497,-4.44256 0.37724,-0.31229 0.80016,-0.5649 1.20023,-0.84735 0.44383,-0.23799 0.87519,-0.50086 1.33148,-0.71398 1.81421,-0.84739 3.80043,-1.3571 5.77822,-1.6242 0,0 -1.61198,-1.14081 -1.61198,-1.14081 z" />
    <path
       style="fill:#8e61aa;stroke:none;stroke-width:0.392642"
       id="path1647"
       d="m 51.464222,99.395027 c 1.336834,5.623473 2.122845,11.368543 2.90925,17.090153 0.83185,6.71798 1.424114,13.46374 1.814764,20.22108 0.233547,4.67848 0.310647,9.36171 0.197905,14.04419 -0.07503,3.29463 -0.174781,6.58853 -0.231716,9.88355 0.0016,2.26915 -0.192038,4.53154 -0.432946,6.7859 0.02773,0.48229 -0.589018,3.00109 -0.167484,3.32365 1.891779,1.44764 1.83111,1.28891 3.582969,1.59681 3.295147,0.32437 6.589829,-0.15188 9.832969,-0.70282 0.464908,-0.129 2.093834,-0.23819 2.413651,-0.69878 0.212537,-0.30609 0.101952,-0.72312 0.07741,-1.04523 -0.182893,-1.33237 -0.252158,-1.76177 -0.396772,-3.1983 -0.0755,-0.74998 -0.171952,-1.49913 -0.201361,-2.25232 -0.136221,-3.48875 0.207637,-6.9617 0.51212,-10.43107 0.938379,-8.33255 1.660699,-16.68519 2.086469,-25.0596 0.240986,-5.67052 0.09102,-11.34854 -0.331697,-17.00588 -0.313558,-2.48359 -0.379402,-5.07093 -1.26786,-7.43817 -0.599307,-1.16753 -1.559713,-1.64889 -2.909919,-2.06402 -0.506478,-0.15573 -1.057931,-0.0622 -1.586963,-0.0921 -0.732835,-0.0415 -1.465754,-0.0814 -2.198632,-0.12212 -4.329392,-0.22575 -8.662844,-0.35763 -12.996976,-0.4462 -1.582835,-0.0322 -0.853257,-0.017 -2.188739,-0.0451 0,0 1.556277,1.1334 1.556277,1.1334 v 0 c 1.301906,0.002 0.589057,-8e-4 2.138539,0.01 4.319609,0.0567 8.639485,0.16615 12.952344,0.42388 0.74553,0.0515 1.491911,0.0919 2.236592,0.15451 0.55182,0.0464 1.395238,0.66298 1.652325,0.1725 0.240305,-0.45846 -0.862407,-0.5728 -1.288293,-0.867 -0.09692,-0.067 0.209717,0.11069 0.301083,0.18505 0.107521,0.0875 0.206782,0.18697 0.291168,0.29695 0.106262,0.1385 0.18497,0.29611 0.277455,0.44416 0.979705,2.34304 1.062099,4.95 1.395088,7.43692 0.476776,5.67373 0.704768,11.37097 0.496072,17.06434 -0.388488,8.37203 -1.142312,16.71639 -2.106168,25.04152 -0.323374,3.4498 -0.711951,6.92681 -0.641506,10.39897 0.03657,1.80238 0.343374,3.59509 0.474401,5.39078 0.0091,0.0841 0.130114,0.67615 0.0063,0.85357 -0.280945,0.40247 -1.907479,0.54325 -2.310029,0.66878 -3.223292,0.58594 -6.508742,1.06519 -9.786019,0.64934 -0.410454,-0.0937 -0.968995,-0.61044 -1.231361,-0.28117 -0.236818,0.29721 0.562663,0.56271 0.930273,0.65903 0.16288,0.0427 -0.173295,-0.29917 -0.194421,-0.46621 -0.03049,-0.24105 0.02191,-0.4856 0.04343,-0.72761 0.06179,-0.69453 0.173477,-1.38405 0.231442,-2.07897 0.250402,-2.25986 0.456753,-4.52918 0.434514,-6.80541 0.03069,-3.30256 0.08915,-6.60484 0.183862,-9.90621 0.09372,-4.70119 -0.02672,-9.40088 -0.270134,-14.09673 -0.380558,-6.78017 -1.069031,-13.5392 -1.899687,-20.2784 -0.679337,-4.96501 -1.376569,-9.93501 -2.191496,-14.88002 -0.09455,-0.57373 -0.289587,-1.4615 -0.422937,-2.08305 0,0 -1.775513,-0.856295 -1.775513,-0.856295 z" />
    <path
       style="fill:#8e61aa;stroke:none;stroke-width:0.392642"
       id="path1649"
       d="m 56.528151,133.33161 c 3.029707,0.63665 6.152256,0.55674 9.23049,0.49164 1.604568,0.009 3.206967,-0.21611 4.810696,-0.1739 0,0 -1.580446,-1.15029 -1.580446,-1.15029 v 0 c -1.58002,0.0153 -3.154183,0.21913 -4.735015,0.23631 -3.104282,0.0803 -6.254663,0.13633 -9.294754,-0.597 0,0 1.569029,1.19324 1.569029,1.19324 z" />
    <path
       style="fill:#8e61aa;stroke:none;stroke-width:0.392642"
       id="path1651"
       d="m 61.183124,173.58734 c 0.420204,2.75936 0.614876,5.54538 0.760884,8.33056 -0.03927,0.68849 0.225068,1.8014 -0.463974,2.30883 -0.892558,0.6573 -2.249715,0.61791 -3.290482,0.69527 -0.198155,0.0432 -0.428974,0.0123 -0.594463,0.12957 -0.08503,0.0602 -0.114814,0.25378 -0.02796,0.31137 0.712716,0.47257 1.4831,0.86452 2.277784,1.18038 0.318048,0.12641 0.678439,0.0913 1.018516,0.1298 0.894025,0.1013 1.3691,0.13397 2.261251,0.20783 0.998882,0.0528 1.997596,0.17626 2.998341,0.13259 0,0 -1.591112,-1.14642 -1.591112,-1.14642 v 0 c -0.981461,0.0347 -1.961388,-0.062 -2.940611,-0.1199 -0.775914,-0.0655 -1.486635,-0.11572 -2.259523,-0.22131 -0.344911,-0.0471 -1.049806,-0.51785 -1.03037,-0.17028 0.02527,0.45185 0.730957,0.53628 1.067745,0.83857 0.04274,0.0384 -0.112858,-0.0214 -0.169286,-0.0321 0.178999,-0.0451 0.358,-0.0901 0.536999,-0.13513 1.104368,-0.0991 2.490919,-0.0906 3.417392,-0.81898 0.723154,-0.56856 0.465828,-1.68043 0.483024,-2.43954 -0.174191,-2.77765 -0.374711,-5.55466 -0.712865,-8.31799 0,0 -1.741289,-0.8631 -1.741289,-0.8631 z" />
    <path
       style="fill:#8e61aa;stroke:none;stroke-width:0.392642"
       id="path1653"
       d="m 61.416154,93.818553 c 0.135924,2.919698 0.320376,5.838944 0.395821,8.760987 0.0016,0.35214 0.0033,0.70427 0.0049,1.0564 0,0 1.704285,0.86503 1.704285,0.86503 v 0 c -0.0094,-0.35725 -0.01889,-0.7145 -0.02835,-1.07175 -0.110393,-2.90608 -0.305541,-5.808801 -0.325242,-8.718278 0,0 -1.751412,-0.892389 -1.751412,-0.892389 z" />
    <path
       style="fill:#8e61aa;stroke:none;stroke-width:0.392642"
       id="path1655"
       d="m 56.854247,92.241757 c 2.363714,-0.09873 4.713148,0.264691 7.053355,0.539653 0,0 -1.428247,-1.063802 -1.428247,-1.063802 v 0 c -2.39772,-0.28992 -4.798454,-0.666334 -7.220407,-0.634906 0,0 1.595299,1.159055 1.595299,1.159055 z" />
    <path
       style="fill:#8e61aa;stroke:none;stroke-width:0.392642"
       id="path1657"
       d="m 98.941449,107.38413 c -0.03567,1.58787 -0.03751,1.42842 -0.04719,3.36415 -0.01781,3.56012 -0.0011,6.81009 -0.05821,10.41656 -0.08757,5.5284 -0.237966,9.45462 -0.417282,15.00567 -0.208799,6.9729 -0.447016,13.9449 -0.727165,20.9153 -0.133099,3.31164 -0.307134,6.6086 -0.279506,9.92263 0.124513,0.53688 0.26243,1.94134 0.940885,2.32575 0.932436,0.52832 1.938379,0.99403 2.996159,1.16621 0.75119,0.12227 1.51064,-0.18935 2.26204,-0.31033 1.45463,-0.23422 4.30251,-0.79662 5.71135,-1.06872 2.32304,-0.45899 4.6615,-0.86647 6.95092,-1.48025 0.56555,-0.15162 1.77527,-0.50495 2.36091,-0.80015 0.21645,-0.10911 0.39983,-0.27415 0.59975,-0.41122 0.0898,-0.18318 0.23379,-0.34866 0.26955,-0.54952 0.1056,-0.59323 -0.19393,-1.73792 -0.27706,-2.20757 -0.1347,-0.76102 -0.26665,-1.52258 -0.38922,-2.28566 -0.46414,-2.88962 -0.4344,-2.86005 -0.8178,-5.8694 -0.82723,-7.0283 -0.94106,-14.10909 -1.14411,-21.1746 -0.22374,-9.14465 -0.76025,-18.2768 -1.22377,-27.4112 -0.29918,-7.043305 -0.69998,-14.081696 -0.99079,-21.125345 -0.21871,-1.216017 0.0969,-2.817348 -0.46882,-3.982544 -0.0895,-0.184412 -0.2189,-0.372475 -0.40131,-0.466015 -2.58268,-1.324363 -2.08234,-1.131139 -4.25073,-1.212089 -2.40775,0.03755 -4.82994,0.02516 -7.22876,0.264247 -0.96224,0.109974 -1.92352,0.338149 -2.802538,0.750672 -0.71574,0.450791 -0.692748,1.377357 -0.751906,2.135246 -0.04239,0.543076 -0.06202,1.087691 -0.09208,1.631589 -0.04492,0.812902 -0.08858,1.625874 -0.132868,2.438811 -0.487151,7.134637 -0.923116,14.272688 -1.397318,21.408208 0,0 1.581174,0.81677 1.581174,0.81677 v 0 c 0.322691,-7.14167 0.736896,-14.28007 1.412176,-21.398229 0.0642,-0.802513 0.12813,-1.605051 0.19266,-2.407539 0.0682,-0.847504 0.0578,-2.268536 0.40095,-3.112565 0.10129,-0.249112 0.22087,-0.284915 0.42859,-0.424252 0.8658,-0.386149 1.79916,-0.607313 2.73927,-0.716267 2.37645,-0.24371 4.77563,-0.275696 7.16227,-0.276753 2.69414,0.170856 1.25076,0.458687 0.93778,-0.643105 -0.0548,-0.193068 0.35554,0.217043 0.46016,0.388326 0.6325,1.035542 0.37909,2.888647 0.60603,3.997621 0.41311,7.066459 0.81825,14.133147 1.14639,21.204153 0.49899,9.12557 0.99678,18.25322 1.19514,27.39145 0.13239,7.0594 0.27159,14.12879 1.06236,21.1525 0.47083,3.94391 0.23208,2.12011 0.75411,5.84429 0.10538,0.7518 0.20292,1.50475 0.31702,2.25527 0.0345,0.22694 0.33081,1.63043 0.27322,2.07193 -0.0221,0.1691 -0.13792,0.31194 -0.20688,0.46792 -0.18415,0.13012 -0.3525,0.28614 -0.55245,0.39036 -0.57461,0.29949 -1.72927,0.65944 -2.28828,0.8185 -2.2568,0.64215 -4.56764,1.07069 -6.86675,1.52594 -1.46177,0.27465 -4.24627,0.81864 -5.75396,1.02319 -0.76104,0.10326 -1.59723,-0.10084 -2.293094,0.22413 -0.232537,0.10859 0.515314,0.78377 0.266094,0.72248 -0.687228,-0.16901 -0.989891,-1.95413 -1.077645,-2.26275 -0.146907,-3.35583 -0.06822,-6.69463 0.0021,-10.0535 0.146301,-6.9955 0.333536,-13.99021 0.59536,-20.98243 0.341418,-9.50243 0.600725,-19.00967 1.049745,-28.50738 0,0 -1.73659,-0.90049 -1.73659,-0.90049 z" />
    <path
       style="fill:#8e61aa;stroke:none;stroke-width:0.392642"
       id="path1659"
       d="m 104.35463,74.045185 c 0.16017,0.810924 0.0835,0.384092 0.22531,1.281317 0,0 1.74205,0.855278 1.74205,0.855278 v 0 c -0.12654,-0.896407 -0.0618,-0.469759 -0.19185,-1.280299 0,0 -1.77551,-0.856296 -1.77551,-0.856296 z" />
    <path
       style="fill:#8e61aa;stroke:none;stroke-width:0.392642"
       id="path1661"
       d="m 103.87915,71.535137 c -0.2529,2.908265 -0.20024,5.837153 -0.22149,8.754919 -0.003,0.271492 -0.005,0.542983 -0.008,0.814474 0,0 1.72164,0.875619 1.72164,0.875619 v 0 c -0.007,-0.275951 -0.0135,-0.551903 -0.0202,-0.827854 -0.0362,-2.889139 -0.10427,-5.802085 0.25433,-8.673271 0,0 -1.7262,-0.943887 -1.7262,-0.943887 z" />
    <path
       style="fill:#8e61aa;stroke:none;stroke-width:0.392642"
       id="path1663"
       d="m 100.59644,71.588165 c 1.76045,0.04393 3.46878,0.478106 5.16848,0.899453 1.41031,0.323798 0.71857,0.170731 2.07491,0.460534 0,0 -1.52564,-1.158223 -1.52564,-1.158223 v 0 c -1.34791,-0.287377 -0.65937,-0.134335 -2.06523,-0.460854 -1.72742,-0.425633 -3.46567,-0.847696 -5.252869,-0.903634 0,0 1.600349,1.162724 1.600349,1.162724 z" />
    <path
       style="fill:#8e61aa;stroke:none;stroke-width:0.392642"
       id="path1665"
       d="m 109.8579,168.43952 c -0.30049,1.90315 -0.86008,3.73573 -1.46185,5.56115 -0.61833,1.41642 -1.02413,2.94646 -1.76073,4.30883 0,0 1.69921,0.97231 1.69921,0.97231 v 0 c 0.71455,-1.3902 1.12589,-2.92582 1.72264,-4.36727 0.59545,-1.82142 1.18491,-3.64106 1.53682,-5.52868 0,0 -1.73609,-0.94634 -1.73609,-0.94634 z" />
    <path
       style="fill:#8e61aa;stroke:none;stroke-width:0.392642"
       id="path1667"
       d="m 103.24997,179.51133 c 1.98547,-0.15733 3.98578,0.0955 5.96546,0.24094 0,0 -1.46013,-1.07809 -1.46013,-1.07809 v 0 c -2.02743,-0.16321 -4.06948,-0.43485 -6.10587,-0.30368 0,0 1.60054,1.14083 1.60054,1.14083 z" />
    <path
       style="fill:#8e61aa;stroke:none;stroke-width:0.392642"
       id="path1669"
       d="m 99.453119,127.60543 c 3.304191,0.28854 6.604651,0.52455 9.922611,0.43869 1.73798,-0.0844 3.46243,-0.29631 5.20376,-0.22951 0,0 -1.58231,-1.15644 -1.58231,-1.15644 v 0 c -1.71861,-0.0308 -3.41947,0.20794 -5.13405,0.29337 -3.3473,0.0991 -6.67483,-0.1514 -10.002787,-0.50332 0,0 1.592776,1.15721 1.592776,1.15721 z" />
    <path
       style="fill:#8e61aa;stroke:none;stroke-width:0.392642"
       id="path1671"
       d="m 142.50826,125.16011 c 1.223,8.31217 2.10051,16.67227 3.08674,25.01511 0.74441,7.01298 1.72772,14.01154 1.99705,21.06449 0.1166,0.65683 -0.19036,2.7517 0.55304,3.25266 0.77302,0.52091 1.60508,0.97272 2.48252,1.28738 0.34364,0.12323 2.67143,0.003 2.84893,-0.003 3.78822,-0.28169 7.5882,-0.20623 11.3818,-0.11379 0.65665,0.0252 2.285,0.1126 2.595,-0.79883 0.254,-0.74678 -0.0213,-2.64116 -0.0908,-3.22413 -0.0969,-0.81221 -0.22096,-1.62094 -0.33144,-2.43141 -1.10191,-8.45082 -2.36173,-16.87959 -3.50038,-25.32527 -0.4813,-3.72776 -0.91814,-7.46145 -1.28509,-11.20228 -0.1707,-1.74016 -0.29273,-3.46405 -0.59496,-5.18609 -0.15156,-0.27085 -0.20688,-0.62567 -0.45467,-0.81257 -0.79234,-0.5976 -1.67605,-1.07815 -2.58385,-1.47917 -0.68775,-0.30381 -2.32698,-0.31409 -2.99322,-0.31529 -1.11363,-0.002 -2.54201,0.0874 -3.65182,0.14518 -2.53235,0.15539 -5.07396,0.29237 -7.58547,0.66766 -0.77624,0.19473 -1.65252,0.27036 -2.29598,0.79079 0,0 1.67862,1.05431 1.67862,1.05431 v 0 c 0.6157,-0.48669 1.46518,-0.54102 2.19758,-0.73299 2.48432,-0.38327 4.99751,-0.54951 7.50467,-0.70192 1.74194,-0.0856 3.55617,-0.26542 5.29516,-0.0274 0.45479,0.0622 0.89704,0.43204 1.34073,0.31436 0.26686,-0.0708 -0.52329,-0.73038 -0.66519,-0.49354 -0.15644,0.26111 0.33669,0.50722 0.50504,0.76083 0.36757,1.73667 0.53207,3.47656 0.73816,5.24004 0.43998,3.76476 0.92914,7.52352 1.43358,11.28012 1.15066,8.40315 2.31022,16.80483 3.30591,25.22822 0.13363,1.08998 0.41397,3.10201 0.44614,4.27813 0.0106,0.38645 0.0522,0.79048 -0.0684,1.15778 -0.26925,0.81981 -1.89656,0.71993 -2.45126,0.71043 -3.79436,-0.0555 -7.59246,-0.12007 -11.38234,0.12355 -0.53691,0.008 -1.07402,0.0404 -1.61072,0.0236 -0.41584,-0.0131 -0.98943,-0.44332 -1.24299,-0.11346 -0.2144,0.27891 0.47296,0.57952 0.81168,0.67454 0.23172,0.065 -0.35908,-0.34494 -0.44205,-0.57085 -0.1652,-0.44982 -0.23795,-2.36579 -0.25452,-2.63493 -0.0922,-1.69816 -0.14035,-2.86674 -0.30652,-4.59865 -0.53265,-5.55158 -1.39311,-11.06912 -1.96588,-16.61626 -0.93693,-8.26596 -1.83293,-16.53642 -2.68895,-24.81113 0,0 -1.75587,-0.87635 -1.75587,-0.87635 z" />
    <path
       style="fill:#8e61aa;stroke:none;stroke-width:0.392642"
       id="path1673"
       d="m 151.55333,125.59164 c -0.91773,-2.3746 -1.51746,-4.8451 -1.96537,-7.34584 -0.18125,-1.21786 -0.10344,-0.63487 -0.23792,-1.74837 0,0 -1.73301,-0.85576 -1.73301,-0.85576 v 0 c 0.14852,1.1279 0.0637,0.53765 0.25859,1.77013 0.46088,2.49335 1.05876,4.95888 1.91635,7.34858 0,0 1.76136,0.83126 1.76136,0.83126 z" />
    <path
       style="fill:#8e61aa;stroke:none;stroke-width:0.392642"
       id="path1675"
       d="m 143.55074,115.66748 c 2.5634,-0.20401 5.13811,-0.22548 7.70826,-0.26018 0,0 -1.52078,-1.1015 -1.52078,-1.1015 v 0 c -2.59888,0.0412 -5.20003,0.0724 -7.79537,0.22045 0,0 1.60789,1.14123 1.60789,1.14123 z" />
    <path
       style="fill:#8e61aa;stroke:none;stroke-width:0.392642"
       id="path1677"
       d="m 156.66405,175.63452 c 0.60294,2.20356 0.80504,4.48069 1.04493,6.74369 0.0942,0.95503 0.17696,1.90915 0.30836,2.85972 0,0 1.73933,0.85345 1.73933,0.85345 v 0 c -0.15768,-0.95195 -0.26036,-1.90867 -0.34778,-2.86986 -0.24656,-2.25643 -0.43472,-4.5264 -0.98431,-6.73628 0,0 -1.76053,-0.85072 -1.76053,-0.85072 z" />
    <path
       style="fill:#8e61aa;stroke:none;stroke-width:0.392642"
       id="path1679"
       d="m 157.00177,187.06894 c 2.45847,-0.0671 4.90888,-0.0447 7.35969,0.16069 0,0 -1.52142,-1.12398 -1.52142,-1.12398 v 0 c -2.47605,-0.18737 -4.95139,-0.18881 -7.43357,-0.19576 0,0 1.5953,1.15905 1.5953,1.15905 z" />
  </g>
</svg>
